<svg width="57" height="58" viewBox="0 0 57 58" fill="none" xmlns="http://www.w3.org/2000/svg">
<path class='sankey-icon-border' d="M56.5 29C56.5 44.7483 43.9558 57.5 28.5 57.5C13.0442 57.5 0.5 44.7483 0.5 29C0.5 13.2517 13.0442 0.5 28.5 0.5C43.9558 0.5 56.5 13.2517 56.5 29Z" fill="#202020" stroke="#202020"/>
<g clip-path="url(#clip0_842_2)">
<path d="M12.5703 18.0868L26.0184 20.8211L42.6184 13.5859L41.3376 19.6734L35.7913 23.9943L32.3555 29.9974L26.8203 27.1674L26.0184 20.8211" stroke="#F3F3F3" stroke-width="0.200469" stroke-miterlimit="10"/>
<path d="M14.5472 39.6003L27.5944 34.835L47.4297 41.4063" stroke="#F3F3F3" stroke-width="0.200469" stroke-miterlimit="10"/>
<path d="M26.8203 27.168L27.5888 34.8364" stroke="#F3F3F3" stroke-width="0.200469" stroke-miterlimit="10"/>
<path d="M12.5703 19.6731C13.4376 19.6731 14.1407 18.9628 14.1407 18.0866C14.1407 17.2103 13.4376 16.5 12.5703 16.5C11.7031 16.5 11 17.2103 11 18.0866C11 18.9628 11.7031 19.6731 12.5703 19.6731Z" fill="url(#paint0_radial_842_2)"/>
<path d="M26.0185 22.4017C26.8857 22.4017 27.5888 21.6913 27.5888 20.8151C27.5888 19.9388 26.8857 19.2285 26.0185 19.2285C25.1512 19.2285 24.4481 19.9388 24.4481 20.8151C24.4481 21.6913 25.1512 22.4017 26.0185 22.4017Z" fill="url(#paint1_radial_842_2)"/>
<path d="M42.6184 15.1731C43.4857 15.1731 44.1888 14.4628 44.1888 13.5866C44.1888 12.7103 43.4857 12 42.6184 12C41.7512 12 41.0481 12.7103 41.0481 13.5866C41.0481 14.4628 41.7512 15.1731 42.6184 15.1731Z" fill="url(#paint2_radial_842_2)"/>
<path d="M41.3376 21.2591C42.2048 21.2591 42.9079 20.5487 42.9079 19.6725C42.9079 18.7963 42.2048 18.0859 41.3376 18.0859C40.4703 18.0859 39.7672 18.7963 39.7672 19.6725C39.7672 20.5487 40.4703 21.2591 41.3376 21.2591Z" fill="url(#paint3_radial_842_2)"/>
<path d="M35.7858 25.5813C36.6531 25.5813 37.3561 24.871 37.3561 23.9948C37.3561 23.1185 36.6531 22.4082 35.7858 22.4082C34.9185 22.4082 34.2155 23.1185 34.2155 23.9948C34.2155 24.871 34.9185 25.5813 35.7858 25.5813Z" fill="url(#paint4_radial_842_2)"/>
<path d="M32.3555 31.5843C33.2228 31.5843 33.9258 30.8739 33.9258 29.9977C33.9258 29.1215 33.2228 28.4111 32.3555 28.4111C31.4882 28.4111 30.7852 29.1215 30.7852 29.9977C30.7852 30.8739 31.4882 31.5843 32.3555 31.5843Z" fill="url(#paint5_radial_842_2)"/>
<path d="M26.8203 28.7532C27.6876 28.7532 28.3907 28.0429 28.3907 27.1666C28.3907 26.2904 27.6876 25.5801 26.8203 25.5801C25.9531 25.5801 25.25 26.2904 25.25 27.1666C25.25 28.0429 25.9531 28.7532 26.8203 28.7532Z" fill="url(#paint6_radial_842_2)"/>
<path d="M27.5888 36.4222C28.456 36.4222 29.1591 35.7118 29.1591 34.8356C29.1591 33.9594 28.456 33.249 27.5888 33.249C26.7215 33.249 26.0184 33.9594 26.0184 34.8356C26.0184 35.7118 26.7215 36.4222 27.5888 36.4222Z" fill="url(#paint7_radial_842_2)"/>
<path d="M14.5471 41.1878C15.4144 41.1878 16.1175 40.4775 16.1175 39.6012C16.1175 38.725 15.4144 38.0146 14.5471 38.0146C13.6799 38.0146 12.9768 38.725 12.9768 39.6012C12.9768 40.4775 13.6799 41.1878 14.5471 41.1878Z" fill="url(#paint8_radial_842_2)"/>
<path d="M47.4297 42.9935C48.297 42.9935 49.0001 42.2831 49.0001 41.4069C49.0001 40.5306 48.297 39.8203 47.4297 39.8203C46.5624 39.8203 45.8594 40.5306 45.8594 41.4069C45.8594 42.2831 46.5624 42.9935 47.4297 42.9935Z" fill="url(#paint9_radial_842_2)"/>
</g>
<defs>
<radialGradient id="paint0_radial_842_2" cx="0" cy="0" r="1" gradientUnits="userSpaceOnUse" gradientTransform="translate(12.5703 18.0866) scale(1.57034 1.58657)">
<stop stop-color="#EEEEEF"/>
<stop offset="0.09" stop-color="#E6E6E8"/>
<stop offset="0.24" stop-color="#D1D2D5"/>
<stop offset="0.41" stop-color="#AEB0B5"/>
<stop offset="0.61" stop-color="#7E8189"/>
<stop offset="0.83" stop-color="#414551"/>
<stop offset="1" stop-color="#0A101F"/>
</radialGradient>
<radialGradient id="paint1_radial_842_2" cx="0" cy="0" r="1" gradientUnits="userSpaceOnUse" gradientTransform="translate(26.0185 20.8151) scale(1.57034 1.58657)">
<stop stop-color="#EEEEEF"/>
<stop offset="0.09" stop-color="#E6E6E8"/>
<stop offset="0.24" stop-color="#D1D2D5"/>
<stop offset="0.41" stop-color="#AEB0B5"/>
<stop offset="0.61" stop-color="#7E8189"/>
<stop offset="0.83" stop-color="#414551"/>
<stop offset="1" stop-color="#0A101F"/>
</radialGradient>
<radialGradient id="paint2_radial_842_2" cx="0" cy="0" r="1" gradientUnits="userSpaceOnUse" gradientTransform="translate(42.6184 13.5866) scale(1.57034 1.58657)">
<stop stop-color="#EEEEEF"/>
<stop offset="0.09" stop-color="#E6E6E8"/>
<stop offset="0.24" stop-color="#D1D2D5"/>
<stop offset="0.41" stop-color="#AEB0B5"/>
<stop offset="0.61" stop-color="#7E8189"/>
<stop offset="0.83" stop-color="#414551"/>
<stop offset="1" stop-color="#0A101F"/>
</radialGradient>
<radialGradient id="paint3_radial_842_2" cx="0" cy="0" r="1" gradientUnits="userSpaceOnUse" gradientTransform="translate(41.3376 19.6725) scale(1.57034 1.58657)">
<stop stop-color="#EEEEEF"/>
<stop offset="0.09" stop-color="#E6E6E8"/>
<stop offset="0.24" stop-color="#D1D2D5"/>
<stop offset="0.41" stop-color="#AEB0B5"/>
<stop offset="0.61" stop-color="#7E8189"/>
<stop offset="0.83" stop-color="#414551"/>
<stop offset="1" stop-color="#0A101F"/>
</radialGradient>
<radialGradient id="paint4_radial_842_2" cx="0" cy="0" r="1" gradientUnits="userSpaceOnUse" gradientTransform="translate(35.7858 23.9948) scale(1.57034 1.58657)">
<stop stop-color="#EEEEEF"/>
<stop offset="0.09" stop-color="#E6E6E8"/>
<stop offset="0.24" stop-color="#D1D2D5"/>
<stop offset="0.41" stop-color="#AEB0B5"/>
<stop offset="0.61" stop-color="#7E8189"/>
<stop offset="0.83" stop-color="#414551"/>
<stop offset="1" stop-color="#0A101F"/>
</radialGradient>
<radialGradient id="paint5_radial_842_2" cx="0" cy="0" r="1" gradientUnits="userSpaceOnUse" gradientTransform="translate(32.3555 29.9977) scale(1.57034 1.58657)">
<stop stop-color="#EEEEEF"/>
<stop offset="0.09" stop-color="#E6E6E8"/>
<stop offset="0.24" stop-color="#D1D2D5"/>
<stop offset="0.41" stop-color="#AEB0B5"/>
<stop offset="0.61" stop-color="#7E8189"/>
<stop offset="0.83" stop-color="#414551"/>
<stop offset="1" stop-color="#0A101F"/>
</radialGradient>
<radialGradient id="paint6_radial_842_2" cx="0" cy="0" r="1" gradientUnits="userSpaceOnUse" gradientTransform="translate(26.8203 27.1666) scale(1.57034 1.58657)">
<stop stop-color="#EEEEEF"/>
<stop offset="0.09" stop-color="#E6E6E8"/>
<stop offset="0.24" stop-color="#D1D2D5"/>
<stop offset="0.41" stop-color="#AEB0B5"/>
<stop offset="0.61" stop-color="#7E8189"/>
<stop offset="0.83" stop-color="#414551"/>
<stop offset="1" stop-color="#0A101F"/>
</radialGradient>
<radialGradient id="paint7_radial_842_2" cx="0" cy="0" r="1" gradientUnits="userSpaceOnUse" gradientTransform="translate(27.5888 34.8356) scale(1.57034 1.58657)">
<stop stop-color="#EEEEEF"/>
<stop offset="0.09" stop-color="#E6E6E8"/>
<stop offset="0.24" stop-color="#D1D2D5"/>
<stop offset="0.41" stop-color="#AEB0B5"/>
<stop offset="0.61" stop-color="#7E8189"/>
<stop offset="0.83" stop-color="#414551"/>
<stop offset="1" stop-color="#0A101F"/>
</radialGradient>
<radialGradient id="paint8_radial_842_2" cx="0" cy="0" r="1" gradientUnits="userSpaceOnUse" gradientTransform="translate(14.5471 39.6012) scale(1.57034 1.58657)">
<stop stop-color="#EEEEEF"/>
<stop offset="0.09" stop-color="#E6E6E8"/>
<stop offset="0.24" stop-color="#D1D2D5"/>
<stop offset="0.41" stop-color="#AEB0B5"/>
<stop offset="0.61" stop-color="#7E8189"/>
<stop offset="0.83" stop-color="#414551"/>
<stop offset="1" stop-color="#0A101F"/>
</radialGradient>
<radialGradient id="paint9_radial_842_2" cx="0" cy="0" r="1" gradientUnits="userSpaceOnUse" gradientTransform="translate(47.4297 41.4069) scale(1.57034 1.58657)">
<stop stop-color="#EEEEEF"/>
<stop offset="0.09" stop-color="#E6E6E8"/>
<stop offset="0.24" stop-color="#D1D2D5"/>
<stop offset="0.41" stop-color="#AEB0B5"/>
<stop offset="0.61" stop-color="#7E8189"/>
<stop offset="0.83" stop-color="#414551"/>
<stop offset="1" stop-color="#0A101F"/>
</radialGradient>
<clipPath id="clip0_842_2">
<rect width="38" height="31" fill="white" transform="translate(11 12)"/>
</clipPath>
</defs>
</svg>
