<svg width="452" height="415" viewBox="0 0 452 415" fill="none" xmlns="http://www.w3.org/2000/svg">
<path d="M234.498 70C230.574 58.2824 227.845 46.6666 225.456 34.949C223.162 29.2144 222.299 23.3087 222.897 17.4235C224.343 11.1399 228.324 5.16043 234.498 0H237.057C243.112 5.189 247.028 11.159 248.487 17.4235C249.17 23.3093 248.306 29.2227 245.928 34.949C243.54 46.6666 240.981 58.2824 237.057 70H234.498Z" fill="#183A85"/>
<path d="M94.3406 315.369C87.4082 321.435 80.2396 326.949 72.9921 332.464C69.7116 335.639 65.966 338.296 61.8845 340.342C57.3113 342.167 52.3739 342.896 47.4684 342.468L46.9169 341.444C48.9871 336.994 52.0936 333.104 55.9762 330.1C59.7589 327.574 63.9023 325.635 68.2655 324.35C76.6158 320.805 85.0449 317.339 93.7892 314.424L94.3406 315.369Z" fill="white"/>
<path d="M377.308 314.424C385.974 317.339 394.403 320.805 402.753 324.35C407.116 325.635 411.26 327.574 415.042 330.1C418.925 333.104 422.031 336.994 424.102 341.444L423.55 342.468C418.644 342.935 413.697 342.205 409.134 340.342C405.053 338.296 401.307 335.639 398.027 332.464C390.779 327.028 383.61 321.435 376.678 315.369L377.308 314.424Z" fill="white"/>
<path opacity="0.64" d="M235.587 377.921C315.51 377.921 380.3 313.13 380.3 233.207C380.3 153.284 315.51 88.4941 235.587 88.4941C155.664 88.4941 90.874 153.284 90.874 233.207C90.874 313.13 155.664 377.921 235.587 377.921Z" fill="url(#paint0_linear_626_545)"/>
<path opacity="0.64" d="M235.588 325.924C286.796 325.924 328.309 284.412 328.309 233.204C328.309 181.996 286.796 140.483 235.588 140.483C184.38 140.483 142.868 181.996 142.868 233.204C142.868 284.412 184.38 325.924 235.588 325.924Z" fill="#41BCE7"/>
<path d="M235.587 377.921C315.51 377.921 380.3 313.13 380.3 233.207C380.3 153.284 315.51 88.4941 235.587 88.4941C155.664 88.4941 90.874 153.284 90.874 233.207C90.874 313.13 155.664 377.921 235.587 377.921Z" stroke="white" stroke-width="1.7" stroke-miterlimit="10"/>
<path d="M235.667 414C335.516 414 416.46 333.056 416.46 233.207C416.46 133.358 335.516 52.4141 235.667 52.4141C135.817 52.4141 54.8737 133.358 54.8737 233.207C54.8737 333.056 135.817 414 235.667 414Z" stroke="white" stroke-width="1.7" stroke-miterlimit="10"/>
<path d="M236.713 393C244.998 393 251.713 386.284 251.713 378C251.713 369.716 244.998 363 236.713 363C228.429 363 221.713 369.716 221.713 378C221.713 386.284 228.429 393 236.713 393Z" fill="white"/>
<path d="M390.069 275.194C436.862 323.484 460.102 365.079 446.71 384.379C424.179 416.835 307.038 374.453 185.013 289.847C62.9871 205.24 -17.7592 110.235 4.77098 77.7792C19.5023 56.5882 74.6461 67.3807 145.23 101.018" stroke="white" stroke-width="1.7" stroke-miterlimit="10"/>
<path d="M268.991 239.262L325.713 233L268.991 226.738C261.911 225.952 255.306 222.702 250.27 217.527C245.235 212.353 242.072 205.565 241.307 198.289L235.213 140L229.12 198.289C228.355 205.565 225.192 212.353 220.157 217.527C215.121 222.702 208.516 225.952 201.436 226.738L143.213 233L201.436 239.262C208.516 240.048 215.121 243.298 220.157 248.473C225.192 253.647 228.355 260.435 229.12 267.711L235.213 362L241.307 267.711C242.072 260.435 245.235 253.647 250.27 248.473C255.306 243.298 261.911 240.048 268.991 239.262Z" fill="white"/>
<path d="M235.281 210L217.713 240.408H252.769L235.281 210Z" fill="black"/>
<defs>
<linearGradient id="paint0_linear_626_545" x1="235.587" y1="88.4941" x2="235.587" y2="377.921" gradientUnits="userSpaceOnUse">
<stop stop-color="#2156CC"/>
<stop offset="1" stop-color="#2156CC" stop-opacity="0"/>
</linearGradient>
</defs>
</svg>
