<svg width="521" height="479" viewBox="0 0 521 479" fill="none" xmlns="http://www.w3.org/2000/svg">
<path d="M270.595 80.8214C266.064 67.2923 262.913 53.8809 260.155 40.3518C257.506 33.7307 256.51 26.9121 257.201 20.117C258.869 12.862 263.466 5.95819 270.595 0H273.549C280.54 5.99118 285.062 12.884 286.746 20.117C287.535 26.9127 286.538 33.7402 283.792 40.3518C281.034 53.8809 278.079 67.2923 273.549 80.8214H270.595Z" fill="#FF9696"/>
<path d="M108.77 364.123C100.766 371.126 92.4893 377.493 84.1215 383.86C80.3338 387.526 76.0092 390.593 71.2967 392.956C66.0166 395.063 60.3159 395.904 54.652 395.411L54.0153 394.229C56.4055 389.09 59.9923 384.599 64.4751 381.131C68.8425 378.215 73.6265 375.976 78.6642 374.492C88.3054 370.399 98.0376 366.397 108.134 363.031L108.77 364.123Z" fill="white"/>
<path d="M435.482 363.031C445.487 366.397 455.219 370.399 464.861 374.492C469.898 375.976 474.682 378.215 479.05 381.131C483.532 384.599 487.119 389.09 489.509 394.229L488.873 395.411C483.207 395.95 477.496 395.108 472.228 392.956C467.515 390.593 463.191 387.526 459.403 383.86C451.035 377.584 442.758 371.126 434.754 364.123L435.482 363.031Z" fill="white"/>
<path opacity="0.64" d="M271.852 436.344C364.131 436.344 438.937 361.538 438.937 269.259C438.937 176.981 364.131 102.175 271.852 102.175C179.574 102.175 104.768 176.981 104.768 269.259C104.768 361.538 179.574 436.344 271.852 436.344Z" fill="url(#paint0_linear_626_547)"/>
<path opacity="0.64" d="M271.853 376.31C330.978 376.31 378.908 328.38 378.908 269.255C378.908 210.131 330.978 162.201 271.853 162.201C212.729 162.201 164.799 210.131 164.799 269.255C164.799 328.38 212.729 376.31 271.853 376.31Z" fill="#F7B8AF"/>
<path d="M271.852 436.344C364.131 436.344 438.937 361.538 438.937 269.259C438.937 176.981 364.131 102.175 271.852 102.175C179.574 102.175 104.768 176.981 104.768 269.259C104.768 361.538 179.574 436.344 271.852 436.344Z" stroke="white" stroke-width="1.39355" stroke-miterlimit="10"/>
<path d="M271.944 478.001C387.229 478.001 480.686 384.544 480.686 269.259C480.686 153.974 387.229 60.5166 271.944 60.5166C156.659 60.5166 63.202 153.974 63.202 269.259C63.202 384.544 156.659 478.001 271.944 478.001Z" stroke="white" stroke-width="1.39355" stroke-miterlimit="10"/>
<path d="M104.5 282C113.06 282 120 275.06 120 266.5C120 257.94 113.06 251 104.5 251C95.9396 251 89 257.94 89 266.5C89 275.06 95.9396 282 104.5 282Z" fill="white"/>
<path d="M450.216 317.737C504.243 373.492 531.075 421.517 515.612 443.801C489.599 481.274 354.349 432.34 213.459 334.655C72.5698 236.969 -20.6592 127.277 5.35394 89.8033C22.3626 65.3363 86.0311 77.7973 167.527 116.635" stroke="white" stroke-width="2" stroke-miterlimit="10"/>
<path d="M310.42 276.249L375.911 269.02L310.42 261.79C302.246 260.882 294.619 257.129 288.805 251.155C282.991 245.181 279.34 237.343 278.456 228.943L271.421 161.643L264.385 228.943C263.502 237.343 259.85 245.181 254.036 251.155C248.222 257.129 240.596 260.882 232.421 261.79L125.942 269.02L232.421 276.249C240.596 277.157 248.222 280.91 254.036 286.884C259.85 292.859 263.502 300.696 264.385 309.096L271.421 376.397L278.456 309.096C279.34 300.696 282.991 292.859 288.805 286.884C294.619 280.91 302.246 277.157 310.42 276.249Z" fill="white"/>
<path d="M271.853 241.891L251.57 276.999H292.045L271.853 241.891Z" fill="black"/>
<defs>
<linearGradient id="paint0_linear_626_547" x1="271.852" y1="102.175" x2="271.852" y2="436.344" gradientUnits="userSpaceOnUse">
<stop stop-color="#834347"/>
<stop offset="1" stop-color="#834347" stop-opacity="0"/>
</linearGradient>
</defs>
</svg>
