<svg width="594" height="545" viewBox="0 0 594 545" fill="none" xmlns="http://www.w3.org/2000/svg">
<path d="M280.222 90C274.486 75.0656 270.496 59.9998 267.004 45.0654C263.661 37.6915 262.4 30.0993 263.263 22.5327C265.414 14.4188 271.229 6.69283 280.222 0H283.963C292.802 6.72386 298.524 14.4402 300.673 22.5327C301.663 30.1001 300.401 37.7023 296.932 45.0654C293.44 59.9998 289.7 75.0656 283.963 90H280.222Z" fill="#183A85"/>
<path d="M77.0074 239.411C64.9814 238.063 53.2665 235.886 41.5515 233.605C35.5712 233.17 29.6951 231.806 24.1346 229.562C18.2927 226.765 13.2082 222.604 9.30945 217.432L9.82784 215.981C16.0039 214.082 22.5451 213.691 28.9035 214.84C34.7203 216.301 40.2793 218.644 45.3874 221.787C55.7546 226.867 66.9512 232.154 77.5258 237.959L77.0074 239.411Z" fill="white"/>
<path d="M155.901 479.511C150.821 490.501 145.534 501.076 139.418 511.546C137.105 517.051 133.996 522.185 130.191 526.786C125.722 531.504 120.171 535.062 114.018 537.153L112.774 536.22C112.881 529.732 114.553 523.366 117.646 517.663C120.855 512.609 124.804 508.066 129.361 504.185C137.448 495.477 145.742 486.768 154.657 478.578L155.901 479.511Z" fill="white"/>
<path d="M408.654 478.681C417.57 486.871 425.76 495.58 433.95 504.288C438.503 508.173 442.451 512.716 445.665 517.765C448.682 523.494 450.315 529.849 450.434 536.322L449.19 537.256C443.067 535.164 437.55 531.605 433.121 526.888C429.244 522.339 426.128 517.192 423.894 511.648C418.088 501.281 412.386 490.914 407.41 479.614L408.654 478.681Z" fill="white"/>
<path d="M485.888 238.065C496.255 232.156 507.245 226.972 518.13 221.892C523.224 218.793 528.742 216.453 534.51 214.946C540.906 213.849 547.469 214.24 553.69 216.086V217.641C549.792 222.773 544.751 226.926 538.968 229.771C533.388 231.95 527.521 233.312 521.551 233.814C509.836 235.991 498.018 238.168 485.992 239.62L485.888 238.065Z" fill="white"/>
<path opacity="0.64" d="M281.758 495.686C386.939 495.686 472.204 410.421 472.204 305.24C472.204 200.06 386.939 114.795 281.758 114.795C176.578 114.795 91.3129 200.06 91.3129 305.24C91.3129 410.421 176.578 495.686 281.758 495.686Z" fill="url(#paint0_linear_626_525)"/>
<path opacity="0.64" d="M281.759 427.26C349.15 427.26 403.781 372.629 403.781 305.238C403.781 237.847 349.15 183.216 281.759 183.216C214.369 183.216 159.737 237.847 159.737 305.238C159.737 372.629 214.369 427.26 281.759 427.26Z" fill="#1A7469"/>
<path d="M281.758 495.686C386.939 495.686 472.204 410.421 472.204 305.24C472.204 200.06 386.939 114.795 281.758 114.795C176.578 114.795 91.3129 200.06 91.3129 305.24C91.3129 410.421 176.578 495.686 281.758 495.686Z" stroke="white" stroke-width="1.39355" stroke-miterlimit="10"/>
<path d="M281.863 543.167C413.267 543.167 519.79 436.643 519.79 305.24C519.79 173.836 413.267 67.3125 281.863 67.3125C150.459 67.3125 43.9355 173.836 43.9355 305.24C43.9355 436.643 150.459 543.167 281.863 543.167Z" stroke="white" stroke-width="2" stroke-miterlimit="10"/>
<path d="M131.5 199C139.508 199 146 192.508 146 184.5C146 176.492 139.508 170 131.5 170C123.492 170 117 176.492 117 184.5C117 192.508 123.492 199 131.5 199Z" fill="white"/>
<path d="M159.5 170C167.508 170 174 163.508 174 155.5C174 147.492 167.508 141 159.5 141C151.492 141 145 147.492 145 155.5C145 163.508 151.492 170 159.5 170Z" fill="white"/>
<path d="M470 355C477.732 355 484 348.732 484 341C484 333.268 477.732 327 470 327C462.268 327 456 333.268 456 341C456 348.732 462.268 355 470 355Z" fill="white"/>
<path d="M472 312C479.732 312 486 305.732 486 298C486 290.268 479.732 284 472 284C464.268 284 458 290.268 458 298C458 305.732 464.268 312 472 312Z" fill="white"/>
<path fill-rule="evenodd" clip-rule="evenodd" d="M368.975 391.472L308.776 343.272C304.803 340.094 300.297 337.703 295.489 336.176C292.948 341.062 291.321 346.439 290.734 352.028L282.5 431L274.266 352.028C273.683 346.468 272.069 341.119 269.552 336.254C264.333 337.915 259.411 340.555 255.069 344.073L193.404 394.093L243.424 332.428C246.96 328.063 249.61 323.112 251.269 317.863C246.79 315.543 241.912 314.047 236.856 313.484L160.206 305L236.856 296.516C241.942 295.95 246.847 294.44 251.349 292.097C249.823 287.256 247.422 282.719 244.225 278.721L156 177.5L256.223 266.723C260.198 269.901 264.705 272.293 269.514 273.82C272.053 268.935 273.68 263.56 274.266 257.973L282.5 179L290.734 257.973C291.317 263.53 292.93 268.877 295.445 273.741C300.665 272.081 305.588 269.44 309.931 265.921L371.595 215.902L321.576 277.566C318.038 281.933 315.388 286.886 313.729 292.137C318.209 294.457 323.087 295.953 328.144 296.516L465.5 305L328.144 313.484C323.058 314.05 318.153 315.56 313.652 317.903C315.178 322.742 317.579 327.277 320.774 331.274L368.975 391.472Z" fill="white"/>
<path d="M80.4281 360.393C18.8469 424.048 -11.7364 478.683 5.99157 504.186C35.5381 546.796 189.802 491.124 350.39 379.78C510.978 268.436 617.138 143.407 587.592 100.695C568.205 72.8068 495.635 86.9062 402.745 131.174" stroke="white" stroke-width="2" stroke-miterlimit="10"/>
<defs>
<linearGradient id="paint0_linear_626_525" x1="281.758" y1="114.795" x2="281.758" y2="495.686" gradientUnits="userSpaceOnUse">
<stop stop-color="#2156CC"/>
<stop offset="1" stop-color="#2156CC" stop-opacity="0"/>
</linearGradient>
</defs>
</svg>
