<svg width="413" height="306" viewBox="0 0 413 306" fill="none" xmlns="http://www.w3.org/2000/svg">
<g clip-path="url(#clip0_631_2)">
<path opacity="0.7" d="M213.642 263.661C274.784 263.661 324.349 214.095 324.349 152.953C324.349 91.8107 274.784 42.2451 213.642 42.2451C152.499 42.2451 102.934 91.8107 102.934 152.953C102.934 214.095 152.499 263.661 213.642 263.661Z" fill="url(#paint0_linear_631_2)"/>
<path d="M213.641 223.89C252.816 223.89 284.574 192.132 284.574 152.957C284.574 113.782 252.816 82.0244 213.641 82.0244C174.466 82.0244 142.709 113.782 142.709 152.957C142.709 192.132 174.466 223.89 213.641 223.89Z" fill="#662A47"/>
<path d="M306.089 59.9021C309.645 55.0809 313.381 50.3802 317.178 45.8C318.92 43.3439 320.943 41.0989 323.205 39.1104C325.63 37.1472 328.414 35.6738 331.401 34.7715L331.822 35.1932C330.92 38.1803 329.447 40.964 327.483 43.3894C325.473 45.6519 323.208 47.6742 320.734 49.416C316.214 53.2127 311.513 56.8889 306.692 60.5048L306.089 59.9021Z" fill="white"/>
<path d="M121.073 60.204C116.313 56.6484 111.612 52.9722 107.032 49.1755C104.563 47.4488 102.316 45.4248 100.342 43.149C98.3843 40.7106 96.8928 37.9322 95.9427 34.9529L96.4249 34.4707C99.4042 35.4208 102.183 36.9123 104.621 38.8702C106.897 40.8442 108.921 43.0908 110.648 45.5595C114.444 50.1397 118.121 54.8405 121.676 59.6015L121.073 60.204Z" fill="white"/>
<path d="M121.435 245.22C117.88 250.041 114.203 254.742 110.407 259.262C108.663 261.735 106.641 264 104.38 266.012C101.969 267.996 99.1808 269.472 96.184 270.351L95.7621 269.929C96.7122 266.95 98.2037 264.171 100.162 261.733C102.136 259.457 104.382 257.433 106.851 255.706C111.431 251.909 116.132 248.173 120.893 244.617L121.435 245.22Z" fill="white"/>
<path d="M306.45 244.859C311.272 248.415 315.972 252.151 320.492 255.948C322.967 257.69 325.232 259.712 327.242 261.975C329.205 264.4 330.679 267.184 331.581 270.171L331.159 270.593C328.168 269.701 325.383 268.226 322.963 266.254C320.699 264.267 318.677 262.022 316.937 259.564C313.14 254.984 309.403 250.283 305.848 245.462L306.45 244.859Z" fill="white"/>
<path d="M295.12 40.6787C295.591 38.2742 296.601 36.0077 298.073 34.0495C299.492 32.0354 301.345 30.3669 303.497 29.168C303.005 31.5763 301.975 33.8424 300.484 35.7972C299.106 37.8244 297.268 39.4971 295.12 40.6787Z" fill="white"/>
<path d="M276.619 29.3488C276.696 26.8867 277.335 24.4749 278.487 22.2978C279.587 20.1006 281.149 18.1679 283.068 16.6328C282.999 19.0961 282.36 21.5098 281.199 23.6838C280.117 25.8917 278.551 27.8279 276.619 29.3488Z" fill="white"/>
<path d="M256.43 21.0957C256.133 18.637 256.401 16.143 257.214 13.8036C257.929 11.4497 259.165 9.28681 260.83 7.47559C261.158 9.93394 260.89 12.4355 260.046 14.7679C259.331 17.1218 258.095 19.2844 256.43 21.0957Z" fill="white"/>
<path d="M235.458 15.8529C234.774 13.4831 234.65 10.9867 235.096 8.56079C235.417 6.10105 236.304 3.74918 237.688 1.69043C238.343 4.065 238.466 6.55478 238.049 8.98251C237.7 11.4351 236.815 13.7808 235.458 15.8529Z" fill="white"/>
<path d="M213.822 14.2829C212.778 12.0605 212.262 9.62657 212.316 7.17162C212.262 4.69722 212.777 2.24352 213.822 0C214.838 2.25313 215.352 4.70015 215.329 7.17162C215.351 9.62357 214.837 12.0507 213.822 14.2829Z" fill="white"/>
<path d="M192.187 15.8529C190.803 13.7941 189.916 11.4423 189.595 8.98251C189.147 6.55678 189.271 4.05988 189.957 1.69043C191.315 3.76254 192.199 6.10825 192.548 8.56079C192.965 10.9885 192.842 13.4783 192.187 15.8529Z" fill="white"/>
<path d="M171.094 21.0957C169.434 19.2705 168.181 17.1137 167.418 14.7679C166.635 12.4219 166.367 9.93435 166.634 7.47559C168.316 9.2846 169.572 11.4467 170.311 13.8036C171.094 16.1495 171.361 18.6369 171.094 21.0957Z" fill="white"/>
<path d="M151.025 29.3488C149.093 27.8279 147.528 25.8917 146.445 23.6838C145.293 21.5033 144.635 19.0962 144.517 16.6328C146.469 18.1485 148.056 20.0848 149.157 22.2978C150.283 24.4852 150.92 26.8909 151.025 29.3488Z" fill="white"/>
<path d="M132.524 40.6787C130.358 39.4992 128.5 37.8271 127.1 35.7972C125.627 33.839 124.618 31.5725 124.147 29.168C126.299 30.3669 128.153 32.0354 129.571 34.0495C131.043 36.0077 132.053 38.2742 132.524 40.6787Z" fill="white"/>
<path d="M101.909 71.2979C99.5046 70.8272 97.238 69.8174 95.2798 68.3448C93.25 66.9444 91.5778 65.0865 90.3983 62.9209C92.8028 63.3916 95.0694 64.4012 97.0276 65.8739C99.0574 67.2742 100.73 69.1323 101.909 71.2979Z" fill="white"/>
<path d="M90.5791 89.7959C88.117 89.719 85.7052 89.08 83.528 87.9277C81.3308 86.8284 79.3981 85.2659 77.863 83.3477C80.3251 83.4246 82.737 84.0636 84.9141 85.2159C87.1221 86.2984 89.0582 87.8636 90.5791 89.7959Z" fill="white"/>
<path d="M82.2626 109.865C79.8237 110.129 77.3565 109.862 75.0307 109.082C72.6878 108.341 70.5303 107.109 68.7029 105.466C71.137 105.146 73.6122 105.393 75.9347 106.189C78.2933 106.924 80.4561 108.18 82.2626 109.865Z" fill="white"/>
<path d="M77.2 130.956C74.8258 131.613 72.3356 131.737 69.9079 131.318C67.4768 130.958 65.153 130.074 63.0979 128.726C65.4674 128.04 67.9643 127.916 70.3901 128.365C72.8237 128.715 75.1494 129.6 77.2 130.956Z" fill="white"/>
<path d="M75.6331 152.593C73.4009 153.607 70.9738 154.121 68.5218 154.099C66.0504 154.123 63.6033 153.608 61.3502 152.593C63.5937 151.547 66.0474 151.032 68.5218 151.086C70.9768 151.033 73.4107 151.548 75.6331 152.593Z" fill="white"/>
<path d="M77.2 174.228C75.1494 175.584 72.8237 176.469 70.3901 176.819C67.9623 177.236 65.4725 177.113 63.0979 176.458C65.1399 175.084 67.4696 174.198 69.9079 173.866C72.3356 173.447 74.8258 173.571 77.2 174.228Z" fill="white"/>
<path d="M82.2627 195.321C80.5548 196.969 78.4937 198.206 76.2361 198.937C73.9251 199.783 71.4426 200.052 69.0042 199.721C70.8154 198.056 72.9781 196.82 75.3321 196.105C77.5632 195.367 79.9232 195.1 82.2627 195.321Z" fill="white"/>
<path d="M90.5791 215.392C89.0582 217.324 87.1221 218.889 84.9141 219.972C82.737 221.124 80.3251 221.763 77.863 221.84C79.3981 219.922 81.3308 218.359 83.528 217.26C85.7052 216.108 88.117 215.469 90.5791 215.392Z" fill="white"/>
<path d="M132.524 264.445C132.054 266.868 131.045 269.155 129.571 271.135C128.153 273.149 126.299 274.817 124.147 276.016C124.631 273.598 125.638 271.314 127.1 269.327C128.535 267.327 130.385 265.662 132.524 264.445Z" fill="white"/>
<path d="M151.025 275.774C150.928 278.233 150.29 280.641 149.157 282.825C148.058 285.057 146.472 287.013 144.517 288.551C144.635 286.087 145.293 283.68 146.445 281.5C147.542 279.284 149.104 277.331 151.025 275.774Z" fill="white"/>
<path d="M171.094 284.091C171.361 286.55 171.094 289.037 170.311 291.383C169.532 293.632 168.278 295.688 166.634 297.409C166.367 294.951 166.635 292.463 167.418 290.117C168.219 287.879 169.47 285.828 171.094 284.091Z" fill="white"/>
<path d="M192.187 289.157C192.842 291.532 192.965 294.022 192.548 296.449C192.199 298.883 191.314 301.209 189.957 303.259C189.271 300.89 189.147 298.393 189.595 295.967C189.927 293.529 190.814 291.199 192.187 289.157Z" fill="white"/>
<path d="M213.822 290.899C214.837 293.132 215.351 295.559 215.329 298.011C215.352 300.482 214.838 302.929 213.822 305.182C212.777 302.939 212.262 300.485 212.316 298.011C212.262 295.556 212.778 293.122 213.822 290.899Z" fill="white"/>
<path d="M235.457 289.157C236.805 291.212 237.689 293.536 238.049 295.967C238.468 298.395 238.344 300.885 237.687 303.259C236.304 301.222 235.417 298.89 235.096 296.449C234.647 294.024 234.771 291.527 235.457 289.157Z" fill="white"/>
<path d="M256.43 284.091C258.095 285.902 259.331 288.065 260.046 290.419C260.889 292.751 261.158 295.252 260.829 297.711C259.202 295.987 257.969 293.931 257.213 291.684C256.354 289.251 256.085 286.648 256.43 284.091Z" fill="white"/>
<path d="M276.619 275.774C278.54 277.331 280.102 279.284 281.199 281.5C282.36 283.673 282.999 286.087 283.068 288.551C281.147 286.994 279.584 285.041 278.487 282.825C277.327 280.651 276.687 278.238 276.619 275.774Z" fill="white"/>
<path d="M295.12 264.445C297.242 265.663 299.073 267.329 300.484 269.327C301.965 271.31 302.994 273.593 303.497 276.016C301.345 274.817 299.492 273.149 298.073 271.135C296.6 269.155 295.59 266.868 295.12 264.445Z" fill="white"/>
<path d="M325.675 233.89C328.099 234.36 330.385 235.369 332.365 236.843C334.379 238.261 336.047 240.115 337.246 242.267C334.823 241.797 332.537 240.787 330.557 239.314C328.571 237.864 326.909 236.017 325.675 233.89Z" fill="white"/>
<path d="M337.005 215.392C339.469 215.46 341.882 216.1 344.056 217.26C346.381 218.32 348.44 219.884 350.083 221.84C347.618 221.781 345.203 221.141 343.032 219.972C340.707 218.912 338.649 217.348 337.005 215.392Z" fill="white"/>
<path d="M350.384 174.226C352.759 173.571 355.249 173.448 357.676 173.865C360.117 174.186 362.449 175.073 364.486 176.456C362.112 177.111 359.622 177.235 357.194 176.818C354.761 176.468 352.435 175.583 350.384 174.226Z" fill="white"/>
<path d="M345.141 197.188C347.542 196.647 350.033 196.647 352.433 197.188C354.848 197.65 357.132 198.638 359.123 200.081C356.722 200.622 354.231 200.622 351.831 200.081C349.412 199.631 347.126 198.642 345.141 197.188Z" fill="white"/>
<path d="M352.072 152.593C354.315 151.547 356.769 151.032 359.243 151.086C361.698 151.033 364.132 151.548 366.355 152.593C364.123 153.607 361.695 154.121 359.243 154.099C356.772 154.123 354.325 153.608 352.072 152.593Z" fill="white"/>
<path d="M350.384 130.956C352.435 129.6 354.761 128.715 357.194 128.365C359.62 127.916 362.117 128.04 364.486 128.726C362.436 130.083 360.11 130.968 357.676 131.318C355.249 131.735 352.759 131.611 350.384 130.956Z" fill="white"/>
<path d="M345.322 109.863C347.147 108.204 349.304 106.95 351.65 106.187C353.994 105.395 356.488 105.147 358.942 105.464C357.203 107.07 355.151 108.301 352.915 109.08C350.475 109.907 347.88 110.175 345.322 109.863Z" fill="white"/>
<path d="M337.005 89.7959C338.562 87.8749 340.515 86.3127 342.731 85.2159C344.901 84.0471 347.317 83.407 349.782 83.3477C348.138 85.3036 346.08 86.8682 343.755 87.9277C341.672 89.0441 339.366 89.6823 337.005 89.7959Z" fill="white"/>
<path d="M325.675 71.2979C326.892 69.1589 328.557 67.3085 330.557 65.8739C332.537 64.4002 334.823 63.391 337.246 62.9209C336.047 65.0727 334.379 66.9265 332.365 68.3448C330.385 69.8184 328.099 70.8278 325.675 71.2979Z" fill="white"/>
<path d="M213.642 263.661C274.784 263.661 324.349 214.095 324.349 152.953C324.349 91.8107 274.784 42.2451 213.642 42.2451C152.499 42.2451 102.934 91.8107 102.934 152.953C102.934 214.095 152.499 263.661 213.642 263.661Z" stroke="white" stroke-width="1.50664" stroke-miterlimit="10"/>
<path d="M213.702 291.263C290.088 291.263 352.011 229.339 352.011 152.953C352.011 76.5668 290.088 14.6436 213.702 14.6436C137.316 14.6436 75.3923 76.5668 75.3923 152.953C75.3923 229.339 137.316 291.263 213.702 291.263Z" stroke="white" stroke-width="1.50664" stroke-miterlimit="10"/>
<path d="M330.376 108.059C380.095 118.003 412.277 133.853 412.277 151.692C412.277 181.824 320.131 206.413 206.47 206.413C92.8089 206.413 0.723145 181.885 0.723145 151.692C0.723145 131.804 40.6189 114.447 100.222 104.865" stroke="white" stroke-width="1.50664" stroke-miterlimit="10"/>
<path opacity="0.86" d="M231.951 163.611L283 168.706L234.796 151.13C234.255 150.934 233.771 150.606 233.389 150.175C233.006 149.744 232.737 149.224 232.606 148.662C232.475 148.1 232.486 147.515 232.637 146.958C232.789 146.402 233.077 145.892 233.475 145.476L269.336 108.643L225.551 135.491C225.062 135.76 224.514 135.906 223.956 135.916C223.398 135.927 222.846 135.802 222.346 135.551C221.847 135.301 221.415 134.933 221.089 134.479C220.763 134.024 220.551 133.498 220.472 132.943L214.122 82L207.773 132.943C207.687 133.493 207.47 134.014 207.14 134.462C206.811 134.91 206.379 135.272 205.881 135.517C205.382 135.762 204.832 135.882 204.278 135.869C203.723 135.856 203.179 135.708 202.693 135.44L136 91.5L194.769 145.425C195.179 145.841 195.477 146.354 195.636 146.916C195.795 147.479 195.809 148.073 195.677 148.642C195.545 149.212 195.271 149.739 194.882 150.174C194.492 150.609 193.999 150.938 193.449 151.13L144 172.174L196.293 163.662C196.871 163.609 197.453 163.7 197.988 163.927C198.522 164.155 198.991 164.512 199.354 164.967C199.716 165.421 199.961 165.959 200.065 166.531C200.169 167.104 200.13 167.694 199.951 168.247L183.544 217L211.379 173.749C211.693 173.266 212.122 172.868 212.628 172.593C213.133 172.318 213.7 172.174 214.275 172.174C214.85 172.174 215.416 172.318 215.922 172.593C216.427 172.868 216.856 173.266 217.17 173.749L245.005 217L228.65 168.247C228.461 167.72 228.402 167.155 228.479 166.6C228.555 166.045 228.765 165.517 229.089 165.062C229.414 164.606 229.844 164.236 230.342 163.983C230.841 163.731 231.393 163.603 231.951 163.611Z" fill="white"/>
<path d="M213.641 140.06L200.202 163.322H227.02L213.641 140.06Z" fill="black"/>
<path d="M83.468 236.903C74.0375 242.662 66.739 251.336 62.6764 261.612C73.7198 262.24 84.6702 259.28 93.8939 253.175C103.343 247.41 110.646 238.711 114.686 228.405C103.633 227.769 92.6735 230.752 83.468 236.903Z" fill="#FF9696"/>
<path d="M124 102C132.837 102 140 94.8366 140 86C140 77.1634 132.837 70 124 70C115.163 70 108 77.1634 108 86C108 94.8366 115.163 102 124 102Z" fill="white"/>
</g>
<defs>
<linearGradient id="paint0_linear_631_2" x1="213.642" y1="42.2451" x2="214" y2="288.5" gradientUnits="userSpaceOnUse">
<stop stop-color="#BF6066"/>
<stop offset="1" stop-color="#BF6066" stop-opacity="0"/>
</linearGradient>
<clipPath id="clip0_631_2">
<rect width="413" height="305.125" fill="white"/>
</clipPath>
</defs>
</svg>
