<svg width="280" height="97" viewBox="0 0 280 97" fill="none" xmlns="http://www.w3.org/2000/svg">
<circle cx="35" cy="35" r="34.7358" stroke="#DBDBDB" stroke-width="0.528302"/>
<circle cx="140" cy="35" r="34.7358" stroke="#DBDBDB" stroke-width="0.528302"/>
<circle cx="245" cy="35" r="34.7358" stroke="#DBDBDB" stroke-width="0.528302"/>
<path d="M50.2063 39.8722C51.6707 41.2535 53.0264 42.6929 54.2543 44.1703C55.5054 45.6454 56.4984 47.1783 57.1831 48.6915C57.5072 49.4527 57.6656 50.1868 57.65 50.8553C57.6268 51.5249 57.364 52.083 56.8871 52.4755C56.4018 52.867 55.7396 53.0989 54.9514 53.1537C54.1793 53.2118 53.3436 53.1672 52.4665 53.021C50.7157 52.7163 48.8971 52.2 47.0655 51.4877C45.2403 50.7887 43.415 49.9795 41.608 49.0684C34.3653 45.3948 27.4649 40.6553 21.4364 35.2138C19.9375 33.8543 18.527 32.441 17.2195 30.9884C15.8973 29.5345 14.7626 28.0223 13.8498 26.4976C13.3921 25.7254 13.0453 24.9551 12.8188 24.2074C12.5904 23.4534 12.5709 22.7535 12.7617 22.1605C12.9551 21.572 13.3826 21.1252 14.002 20.8642C14.6213 20.6108 15.3631 20.4952 16.1891 20.5233C17.8471 20.6205 19.6336 20.9981 21.4584 21.6369C23.2782 22.2534 25.1082 23.002 26.9231 23.8724C25.1156 23.03 23.2962 22.3102 21.4903 21.723C19.6848 21.1139 17.9232 20.7657 16.2945 20.6961C15.4927 20.6721 14.7739 20.7887 14.1755 21.0396C13.5848 21.2928 13.1781 21.7234 12.9954 22.2889C12.825 22.8631 12.855 23.537 13.0833 24.2606C13.3019 24.9847 13.6394 25.7314 14.0863 26.4794C14.9937 27.9824 16.1207 29.4718 17.4328 30.902C18.7282 32.3336 20.1252 33.7256 21.6095 35.0637C24.6011 37.7492 27.8183 40.2674 31.1972 42.5684C34.5584 44.899 38.0654 46.9992 41.648 48.8268C43.4352 49.7361 45.2415 50.5457 47.0486 51.2472C48.8557 51.957 50.6514 52.4752 52.3824 52.7866C53.2391 52.9309 54.0565 52.9779 54.8134 52.9264C55.5616 52.8714 56.1916 52.6509 56.6567 52.2811C57.1186 51.9063 57.3765 51.3728 57.4058 50.7317C57.4233 50.0833 57.2758 49.3722 56.9706 48.634C56.3219 47.1462 55.3719 45.6351 54.1673 44.1748C52.9683 42.6991 51.642 41.2584 50.2063 39.8722Z" fill="white"/>
<path d="M48.916 31.006C50.8051 31.2861 52.6403 31.6653 54.396 32.1383C56.1685 32.5977 57.7701 33.2324 59.1198 34.0105C59.7828 34.4123 60.3015 34.8787 60.6488 35.3854C60.9906 35.8968 61.085 36.4478 60.9228 36.985C60.7533 37.5258 60.3596 38.0381 59.7719 38.4828C59.1989 38.9218 58.5206 39.3167 57.7553 39.657C56.2209 40.3268 54.5196 40.8735 52.7027 41.2806C50.898 41.6943 49.034 42.026 47.1295 42.2721C39.4843 43.2426 31.5339 43.2426 23.8887 42.2721C21.9842 42.026 20.1202 41.6943 18.3155 41.2806C16.4986 40.8735 14.7973 40.3268 13.2629 39.657C12.4894 39.3155 11.8037 38.9185 11.2243 38.4768C10.6401 38.0314 10.2485 37.5192 10.079 36.9791C9.914 36.4409 10.0084 35.8886 10.353 35.3765C10.7016 34.8701 11.2201 34.4038 11.8819 34.0015C13.2321 33.2245 14.8337 32.5908 16.6057 32.1323C18.3618 31.6598 20.197 31.2806 22.0858 31C20.2178 31.2977 18.4065 31.6929 16.677 32.1802C14.9361 32.6509 13.3698 33.2938 12.0573 34.0764C11.4167 34.4694 10.9167 34.9246 10.5832 35.4184C10.2569 35.91 10.17 36.4396 10.3311 36.9551C10.5064 37.4707 10.8923 37.9581 11.46 38.381C12.0205 38.8092 12.6862 39.1932 13.4383 39.5222C14.9568 40.1786 16.6399 40.7122 18.4361 41.1069C20.2199 41.5111 22.062 41.8338 23.9435 42.0714C27.7294 42.542 31.602 42.7722 35.4844 42.7574C39.3689 42.7739 43.2436 42.5437 47.0309 42.0714C48.919 41.834 50.7683 41.5124 52.5602 41.1099C54.3565 40.7134 56.041 40.1799 57.5635 39.5252C58.3118 39.194 58.9769 38.8102 59.5418 38.3839C60.098 37.9596 60.4725 37.4723 60.6378 36.9581C60.7979 36.4418 60.713 35.9116 60.3912 35.4184C60.0562 34.9256 59.5584 34.4708 58.9225 34.0764C57.6147 33.299 56.0585 32.6585 54.3303 32.1862C52.5982 31.6997 50.7853 31.3045 48.916 31.006Z" fill="white"/>
<path d="M43.4211 23.0991C45.1382 22.1613 46.8763 21.3415 48.6111 20.6511C50.3506 19.9387 52.066 19.4821 53.6705 19.3046C54.4715 19.2341 55.1975 19.3085 55.8107 19.524C56.4225 19.7469 56.8593 20.1576 57.0786 20.7165C57.2943 21.2828 57.3095 21.9645 57.1229 22.7095C56.9444 23.4404 56.6517 24.1994 56.2527 24.966C55.4444 26.4923 54.4202 28.0178 53.2109 29.4962C52.0158 30.9727 50.7188 32.4162 49.3332 33.812C43.7593 39.4003 37.3032 44.3516 30.4608 48.2859C28.7534 49.2622 27.023 50.1405 25.2872 50.9119C23.5457 51.6965 21.8069 52.2902 20.1232 52.6751C19.2719 52.8658 18.4556 52.9545 17.6965 52.9389C16.931 52.9232 16.2783 52.7307 15.7876 52.3759C15.3019 52.0201 15.0176 51.4906 14.9627 50.8396C14.9148 50.1911 15.0312 49.4708 15.3057 48.7158C15.8943 47.2128 16.7807 45.6754 17.92 44.1811C19.0373 42.6848 20.2796 41.2188 21.63 39.8033C20.3077 41.2204 19.0952 42.6852 18.0092 44.1776C16.9032 45.6629 16.0514 47.1862 15.4971 48.6704C15.2337 49.4042 15.1252 50.1035 15.177 50.732C15.2334 51.3542 15.5089 51.8595 15.9766 52.1985C16.456 52.5287 17.0879 52.7037 17.8252 52.7105C18.5602 52.7263 19.3517 52.639 20.1775 52.451C21.8395 52.0646 23.555 51.4711 25.2715 50.6888C26.9842 49.9223 28.691 49.05 30.3741 48.0808C33.756 46.124 37.0511 43.9084 40.1941 41.4778C43.3592 39.0727 46.3552 36.4634 49.1219 33.7024C50.5 32.3242 51.7915 30.8985 52.9836 29.4394C54.1831 27.9829 55.2023 26.4792 56.0108 24.9732C56.4019 24.2249 56.6913 23.4836 56.8714 22.7686C57.0457 22.0606 57.0313 21.4121 56.8295 20.871C56.6221 20.3313 56.2067 19.9325 55.623 19.7125C55.029 19.5013 54.3275 19.4237 53.5534 19.4836C51.9833 19.6356 50.301 20.059 48.589 20.7329C46.8645 21.397 45.1341 22.1893 43.4211 23.0991Z" fill="white"/>
<path d="M140.362 11L142.492 34.5H138.232L140.362 11Z" fill="white"/>
<path d="M120 22.7441L141.427 32.6553L139.297 36.3471L120 22.7441Z" fill="white"/>
<path d="M120 46.2431L139.297 32.6543L141.427 36.3461L120 46.2431Z" fill="white"/>
<path d="M140.362 58L138.232 34.5H142.492L140.362 58Z" fill="white"/>
<path d="M160.71 46.2431L139.297 36.3461L141.427 32.6543L160.71 46.2431Z" fill="white"/>
<path d="M160.71 22.7441L141.427 36.3471L139.297 32.6553L160.71 22.7441Z" fill="white"/>
<path d="M140.362 39.3991C143.067 39.3991 145.26 37.2059 145.26 34.5003C145.26 31.7948 143.067 29.6016 140.362 29.6016C137.656 29.6016 135.463 31.7948 135.463 34.5003C135.463 37.2059 137.656 39.3991 140.362 39.3991Z" fill="white"/>
<path d="M140.653 31.2432L138.219 35.2917H143.077L140.653 31.2432Z" fill="black"/>
<g style="mix-blend-mode:plus-lighter" opacity="0.7">
<path d="M257.772 36.656C262.364 36.656 266.087 32.9333 266.087 28.3412C266.087 23.749 262.364 20.0264 257.772 20.0264C253.18 20.0264 249.457 23.749 249.457 28.3412C249.457 32.9333 253.18 36.656 257.772 36.656Z" fill="#3B3B3B"/>
</g>
<g style="mix-blend-mode:plus-lighter" opacity="0.5">
<path d="M238.85 48.2198C247.604 48.2198 254.7 41.0072 254.7 32.1099C254.7 23.2127 247.604 16 238.85 16C230.096 16 223 23.2127 223 32.1099C223 41.0072 230.096 48.2198 238.85 48.2198Z" fill="#3B3B3B"/>
</g>
<g style="mix-blend-mode:plus-lighter" opacity="0.7">
<path d="M251.483 54.5606C257.367 54.5606 262.137 49.7909 262.137 43.9072C262.137 38.0236 257.367 33.2539 251.483 33.2539C245.6 33.2539 240.83 38.0236 240.83 43.9072C240.83 49.7909 245.6 54.5606 251.483 54.5606Z" fill="#3B3B3B"/>
</g>
<path d="M27.71 79.27C28.45 79.4633 28.9333 79.6333 29.16 79.78C29.3933 79.92 29.51 80.1033 29.51 80.33C29.51 80.55 29.4433 80.7467 29.31 80.92C29.1833 81.0867 29.0467 81.17 28.9 81.17C28.8467 81.17 28.8033 81.1533 28.77 81.12C28.7433 81.08 28.6767 80.95 28.57 80.73C28.4633 80.5033 28.33 80.2833 28.17 80.07C28.0167 79.8567 27.8367 79.6467 27.63 79.44L27.71 79.27ZM27.83 81.55H25.31C25.13 81.55 24.99 81.5733 24.89 81.62L24.62 81.19C24.76 81.2233 24.9267 81.24 25.12 81.24H31.58L32.11 80.44C32.1567 80.38 32.1967 80.35 32.23 80.35C32.27 80.35 32.3967 80.4333 32.61 80.6C32.83 80.76 33.0133 80.91 33.16 81.05C33.3067 81.1833 33.38 81.29 33.38 81.37C33.38 81.49 33.2867 81.55 33.1 81.55H28.29C28.5633 81.6167 28.7733 81.6767 28.92 81.73C29.0667 81.7767 29.14 81.8233 29.14 81.87C29.14 81.9167 29.0867 81.97 28.98 82.03C28.8733 82.0833 28.8067 82.1867 28.78 82.34C28.76 82.4867 28.73 82.73 28.69 83.07H30.58L30.9 82.59C30.94 82.5233 30.98 82.49 31.02 82.49C31.08 82.49 31.2733 82.61 31.6 82.85C31.9267 83.09 32.09 83.24 32.09 83.3C32.09 83.3667 31.9333 83.4633 31.62 83.59C31.5333 85.59 31.4267 86.8133 31.3 87.26C31.18 87.7067 30.92 88.0333 30.52 88.24C30.12 88.4533 29.8567 88.56 29.73 88.56C29.65 88.56 29.6033 88.4867 29.59 88.34C29.5633 88.1 29.47 87.9067 29.31 87.76C29.15 87.6133 28.8367 87.4533 28.37 87.28L28.39 87.08C29.0433 87.2333 29.4833 87.31 29.71 87.31C29.9367 87.31 30.0967 87.2733 30.19 87.2C30.2833 87.1333 30.35 87.02 30.39 86.86C30.4367 86.6933 30.4867 86.2833 30.54 85.63C30.6 84.97 30.6467 84.22 30.68 83.38H28.65C28.4633 84.8333 28.09 85.92 27.53 86.64C26.97 87.3533 26.07 87.98 24.83 88.52L24.76 88.36C25.8867 87.6133 26.67 86.76 27.11 85.8C27.5567 84.84 27.7967 83.4233 27.83 81.55ZM40.32 79.26C40.8667 79.48 41.28 79.7 41.56 79.92C41.84 80.14 41.98 80.3633 41.98 80.59C41.98 80.81 41.9133 80.9933 41.78 81.14C41.6533 81.28 41.54 81.35 41.44 81.35C41.3933 81.35 41.3533 81.33 41.32 81.29C41.2933 81.2433 41.26 81.1433 41.22 80.99C41.18 80.83 41.0567 80.5833 40.85 80.25C40.6433 79.9167 40.4267 79.6267 40.2 79.38L40.32 79.26ZM36.82 82.92C36.32 83.6133 35.7933 84.2267 35.24 84.76L35.13 84.62C36.2767 83.1467 37.1367 81.3933 37.71 79.36C38.4767 79.7867 38.86 80.0533 38.86 80.16C38.86 80.2133 38.79 80.25 38.65 80.27C38.55 80.2833 38.4567 80.3467 38.37 80.46C38.29 80.5667 38.15 80.7967 37.95 81.15C37.75 81.5033 37.5467 81.8367 37.34 82.15C37.74 82.2567 37.94 82.34 37.94 82.4C37.94 82.46 37.85 82.53 37.67 82.61V88.09C37.67 88.1567 37.64 88.2133 37.58 88.26C37.52 88.3067 37.3933 88.3667 37.2 88.44C37.0133 88.52 36.8867 88.56 36.82 88.56C36.7867 88.56 36.77 88.5267 36.77 88.46L36.79 87.82C36.81 87.34 36.82 86.95 36.82 86.65V82.92ZM43 81.6L43.42 80.91C43.46 80.8433 43.5 80.81 43.54 80.81C43.6067 80.81 43.8 80.96 44.12 81.26C44.4467 81.5533 44.61 81.7367 44.61 81.81C44.61 81.8567 44.5233 81.88 44.35 81.88H39.03C38.85 81.88 38.71 81.9033 38.61 81.95L38.43 81.55C38.57 81.5833 38.7367 81.6 38.93 81.6H43ZM41.77 87.53H43.11L43.45 86.89C43.5233 86.75 43.5933 86.68 43.66 86.68C43.7333 86.68 43.8033 86.7067 43.87 86.76C43.9367 86.8067 44.0767 86.9367 44.29 87.15C44.5033 87.3633 44.64 87.5067 44.7 87.58C44.76 87.66 44.79 87.72 44.79 87.76C44.79 87.8 44.7233 87.82 44.59 87.82H38.65C38.47 87.82 38.33 87.8433 38.23 87.89L38.05 87.48C38.19 87.5133 38.3567 87.53 38.55 87.53H41.34C41.7333 85.87 42.0633 84.1067 42.33 82.24C42.77 82.4133 43.0933 82.5567 43.3 82.67C43.5133 82.7767 43.62 82.86 43.62 82.92C43.62 82.98 43.5533 83.0233 43.42 83.05C43.36 83.0633 43.3067 83.1067 43.26 83.18C43.22 83.2467 43.04 83.7467 42.72 84.68L41.77 87.53ZM39.22 82.69C40.2133 84.0833 40.71 85.09 40.71 85.71C40.71 85.9367 40.6533 86.1433 40.54 86.33C40.4267 86.5167 40.2633 86.61 40.05 86.61C39.9633 86.61 39.9033 86.5767 39.87 86.51C39.8367 86.4433 39.8133 86.2567 39.8 85.95C39.7933 85.6367 39.7167 85.1533 39.57 84.5C39.43 83.8467 39.2633 83.2833 39.07 82.81L39.22 82.69Z" fill="white"/>
<path d="M107.15 81.71H105.7C105.527 81.71 105.383 81.7267 105.27 81.76L105.1 81.35C105.24 81.3833 105.407 81.4 105.6 81.4H107.49C107.483 80.14 107.473 79.46 107.46 79.36C108.233 79.5267 108.62 79.6633 108.62 79.77C108.62 79.8233 108.51 79.9333 108.29 80.1V81.4H109.77L110.17 80.82C110.223 80.7467 110.28 80.71 110.34 80.71C110.407 80.71 110.58 80.84 110.86 81.1C111.147 81.36 111.29 81.5267 111.29 81.6C111.29 81.6733 111.23 81.71 111.11 81.71H108.55C108.917 82.77 109.387 83.65 109.96 84.35C110.533 85.05 111.143 85.4933 111.79 85.68V85.86C111.25 85.84 110.867 86 110.64 86.34C110.607 86.4 110.56 86.43 110.5 86.43C110.467 86.43 110.427 86.4133 110.38 86.38C110.34 86.34 110.18 86.1267 109.9 85.74C109.627 85.3533 109.39 84.9567 109.19 84.55C108.997 84.1367 108.83 83.7033 108.69 83.25C108.557 82.7967 108.44 82.2833 108.34 81.71H108.29V85.89H108.73L109.01 85.46C109.05 85.4 109.097 85.37 109.15 85.37C109.21 85.37 109.36 85.47 109.6 85.67C109.84 85.87 109.96 86.0067 109.96 86.08C109.96 86.1467 109.887 86.18 109.74 86.18H108.29C108.29 86.64 108.297 87.12 108.31 87.62L108.33 88.22C108.33 88.2667 108.303 88.31 108.25 88.35C108.197 88.39 108.07 88.45 107.87 88.53C107.67 88.6167 107.533 88.66 107.46 88.66C107.413 88.66 107.393 88.62 107.4 88.54C107.46 87.9133 107.49 87.1267 107.49 86.18H106.38C106.207 86.18 106.063 86.1967 105.95 86.23L105.78 85.84C105.92 85.8733 106.087 85.89 106.28 85.89H107.49V82.85C107.15 83.7233 106.76 84.4667 106.32 85.08C105.887 85.6867 105.31 86.2867 104.59 86.88V88.07C104.59 88.11 104.583 88.14 104.57 88.16C104.557 88.1867 104.49 88.2333 104.37 88.3C104.25 88.3733 104.13 88.43 104.01 88.47C103.897 88.5167 103.823 88.54 103.79 88.54C103.757 88.54 103.74 88.5067 103.74 88.44L103.77 87.84C103.783 87.3867 103.79 86.9933 103.79 86.66V82.9C103.33 83.6733 102.867 84.3333 102.4 84.88L102.27 84.75C103.283 83.0967 103.983 81.2533 104.37 79.22C105.19 79.4933 105.6 79.6833 105.6 79.79C105.6 79.8367 105.54 79.8767 105.42 79.91C105.307 79.9367 105.227 79.98 105.18 80.04C105.133 80.1 105.087 80.1933 105.04 80.32C104.827 80.8867 104.553 81.4867 104.22 82.12C104.673 82.2533 104.9 82.3633 104.9 82.45C104.9 82.4967 104.797 82.5933 104.59 82.74V86.62C105.277 85.76 105.81 84.9533 106.19 84.2C106.57 83.4467 106.89 82.6167 107.15 81.71ZM114.75 87.88C114.817 87.8467 114.88 87.8133 114.94 87.78C115.007 87.7467 115.077 87.7133 115.15 87.68L115.16 85.82C115 85.9667 114.853 86.0967 114.72 86.21C114.593 86.3233 114.467 86.43 114.34 86.53C114.213 86.63 114.08 86.73 113.94 86.83C113.807 86.9233 113.657 87.0233 113.49 87.13L113.39 86.97C113.643 86.7167 113.857 86.4933 114.03 86.3C114.21 86.1067 114.377 85.91 114.53 85.71C114.69 85.51 114.847 85.29 115 85.05C115.153 84.81 115.333 84.52 115.54 84.18H114.22C114.093 84.18 113.987 84.1967 113.9 84.23L113.76 83.86C113.887 83.8867 114.013 83.9 114.14 83.9H116.1C116.047 83.7533 116 83.63 115.96 83.53C115.92 83.43 115.877 83.34 115.83 83.26C115.783 83.1733 115.73 83.0933 115.67 83.02C115.617 82.9467 115.547 82.8633 115.46 82.77L115.51 82.64H113.89C113.817 82.64 113.74 82.6467 113.66 82.66C113.587 82.6733 113.53 82.6867 113.49 82.7L113.33 82.32C113.417 82.3333 113.49 82.3433 113.55 82.35C113.617 82.3567 113.697 82.36 113.79 82.36H115.92V81.27H114.41C114.337 81.27 114.263 81.2767 114.19 81.29C114.117 81.3033 114.06 81.3167 114.02 81.33L113.86 80.93C113.947 80.9433 114.02 80.9533 114.08 80.96C114.147 80.9667 114.227 80.97 114.32 80.97H115.92C115.92 80.7433 115.92 80.5533 115.92 80.4C115.92 80.24 115.92 80.1067 115.92 80C115.92 79.8933 115.92 79.8033 115.92 79.73C115.92 79.6567 115.917 79.5867 115.91 79.52C116.183 79.5733 116.487 79.6733 116.82 79.82C116.973 79.88 117.04 79.9367 117.02 79.99C117.007 80.0433 116.903 80.1233 116.71 80.23L116.72 80.97H117.44L117.8 80.52C117.847 80.4667 117.883 80.44 117.91 80.44C117.937 80.44 117.983 80.4667 118.05 80.52C118.183 80.6267 118.3 80.7267 118.4 80.82C118.5 80.9133 118.597 81.0133 118.69 81.12C118.77 81.22 118.753 81.27 118.64 81.27H116.72V82.36H118.86C118.853 82.1667 118.85 81.95 118.85 81.71C118.85 81.47 118.847 81.23 118.84 80.99C118.833 80.73 118.827 80.4567 118.82 80.17C118.82 79.8833 118.817 79.61 118.81 79.35C118.97 79.39 119.123 79.4333 119.27 79.48C119.423 79.5267 119.583 79.5767 119.75 79.63C119.917 79.69 119.993 79.75 119.98 79.81C119.967 79.8633 119.843 79.9367 119.61 80.03C119.597 80.4633 119.587 80.8767 119.58 81.27C119.58 81.6633 119.583 82.0267 119.59 82.36H121.02L121.34 81.89C121.4 81.7967 121.45 81.7533 121.49 81.76C121.53 81.7667 121.607 81.81 121.72 81.89C121.853 81.99 121.977 82.09 122.09 82.19C122.203 82.29 122.317 82.39 122.43 82.49C122.537 82.5967 122.517 82.65 122.37 82.65H119.59C119.597 82.97 119.61 83.2633 119.63 83.53C119.657 83.7967 119.687 84.0433 119.72 84.27C119.76 84.49 119.803 84.7 119.85 84.9C119.897 85.0933 119.943 85.28 119.99 85.46C120.217 85.1 120.397 84.74 120.53 84.38C120.67 84.02 120.793 83.63 120.9 83.21C121.087 83.2833 121.247 83.35 121.38 83.41C121.52 83.4633 121.667 83.5367 121.82 83.63C121.933 83.6967 121.983 83.75 121.97 83.79C121.963 83.83 121.887 83.8767 121.74 83.93C121.72 83.9367 121.7 83.9467 121.68 83.96C121.66 83.9733 121.633 84 121.6 84.04C121.573 84.08 121.54 84.1367 121.5 84.21C121.46 84.2767 121.41 84.37 121.35 84.49C121.19 84.81 121.027 85.1 120.86 85.36C120.7 85.62 120.51 85.8867 120.29 86.16C120.417 86.4067 120.547 86.6133 120.68 86.78C120.813 86.94 120.98 87.0867 121.18 87.22C121.387 87.3533 121.53 87.4033 121.61 87.37C121.69 87.3367 121.75 87.23 121.79 87.05C121.817 86.93 121.84 86.82 121.86 86.72C121.88 86.6133 121.903 86.5033 121.93 86.39C121.957 86.2767 121.983 86.1533 122.01 86.02C122.043 85.8867 122.08 85.73 122.12 85.55L122.32 85.59C122.293 86.05 122.277 86.4233 122.27 86.71C122.263 86.99 122.267 87.2233 122.28 87.41C122.3 87.5967 122.33 87.7567 122.37 87.89C122.417 88.0233 122.477 88.17 122.55 88.33C122.61 88.4633 122.593 88.55 122.5 88.59C122.407 88.63 122.273 88.6233 122.1 88.57C121.62 88.4167 121.18 88.19 120.78 87.89C120.387 87.59 120.057 87.21 119.79 86.75C119.617 86.95 119.44 87.13 119.26 87.29C119.087 87.4567 118.9 87.61 118.7 87.75C118.507 87.89 118.3 88.02 118.08 88.14C117.86 88.2667 117.627 88.39 117.38 88.51L117.27 88.32C117.723 87.9933 118.14 87.6533 118.52 87.3C118.907 86.9467 119.24 86.57 119.52 86.17C119.44 85.95 119.367 85.7367 119.3 85.53C119.24 85.3167 119.183 85.08 119.13 84.82C119.083 84.5533 119.037 84.25 118.99 83.91C118.95 83.5633 118.91 83.1433 118.87 82.65L115.76 82.64V82.68C115.973 82.7133 116.15 82.7533 116.29 82.8C116.43 82.84 116.54 82.8933 116.62 82.96C116.7 83.02 116.75 83.09 116.77 83.17C116.797 83.25 116.803 83.34 116.79 83.44C116.777 83.54 116.74 83.6267 116.68 83.7C116.627 83.7667 116.543 83.8267 116.43 83.88L116.44 83.92H117.65L117.96 83.42C118 83.3533 118.04 83.3267 118.08 83.34C118.127 83.3467 118.18 83.3767 118.24 83.43C118.347 83.53 118.437 83.6167 118.51 83.69C118.583 83.7633 118.667 83.8567 118.76 83.97C118.827 84.0567 118.857 84.11 118.85 84.13C118.85 84.15 118.803 84.16 118.71 84.16L116.39 84.17C116.317 84.3033 116.24 84.4333 116.16 84.56C116.08 84.6867 116 84.8067 115.92 84.92V87.28L117.27 86.57L117.41 86.74C117.13 86.9733 116.89 87.1733 116.69 87.34C116.497 87.5133 116.33 87.6633 116.19 87.79C116.05 87.9167 115.93 88.03 115.83 88.13C115.737 88.23 115.65 88.3267 115.57 88.42C115.537 88.46 115.51 88.48 115.49 88.48C115.47 88.48 115.433 88.4633 115.38 88.43C115.267 88.3367 115.16 88.2533 115.06 88.18C114.967 88.1067 114.863 88.0067 114.75 87.88ZM118.64 84.77C118.7 84.8233 118.72 84.87 118.7 84.91C118.68 84.95 118.63 84.9633 118.55 84.95C118.51 84.9433 118.47 84.9433 118.43 84.95C118.397 84.95 118.34 84.97 118.26 85.01C118.187 85.0433 118.077 85.1033 117.93 85.19C117.79 85.27 117.597 85.3867 117.35 85.54C117.617 85.68 117.823 85.7967 117.97 85.89C118.123 85.9833 118.237 86.07 118.31 86.15C118.383 86.23 118.43 86.3067 118.45 86.38C118.47 86.4467 118.48 86.5233 118.48 86.61C118.48 86.7833 118.447 86.9233 118.38 87.03C118.32 87.1367 118.247 87.19 118.16 87.19C118.093 87.19 118.04 87.1767 118 87.15C117.967 87.13 117.913 87.0633 117.84 86.95C117.7 86.73 117.573 86.5467 117.46 86.4C117.353 86.2467 117.237 86.11 117.11 85.99C116.99 85.8633 116.85 85.7367 116.69 85.61C116.537 85.4833 116.34 85.3333 116.1 85.16L116.22 85.01C116.367 85.0767 116.527 85.1467 116.7 85.22C116.873 85.2933 117.017 85.3567 117.13 85.41C117.243 85.29 117.333 85.1833 117.4 85.09C117.473 84.9967 117.537 84.9067 117.59 84.82C117.65 84.7333 117.703 84.6467 117.75 84.56C117.803 84.4733 117.867 84.3767 117.94 84.27C118.167 84.4033 118.4 84.57 118.64 84.77ZM121.79 81.08C121.79 81.2333 121.73 81.3733 121.61 81.5C121.49 81.62 121.367 81.68 121.24 81.68C121.087 81.68 120.987 81.5767 120.94 81.37C120.907 81.2233 120.837 81.0667 120.73 80.9C120.63 80.7267 120.463 80.4933 120.23 80.2L120.36 80.05C120.633 80.13 120.86 80.2133 121.04 80.3C121.227 80.38 121.373 80.4633 121.48 80.55C121.593 80.6367 121.673 80.7267 121.72 80.82C121.767 80.9067 121.79 80.9933 121.79 81.08ZM126.35 80.28C126.363 80.0667 126.37 79.8933 126.37 79.76C126.377 79.62 126.373 79.4967 126.36 79.39C126.62 79.45 126.837 79.51 127.01 79.57C127.183 79.6233 127.347 79.6867 127.5 79.76C127.667 79.8333 127.74 79.9033 127.72 79.97C127.707 80.0367 127.58 80.1067 127.34 80.18L127.23 81.47H131.6L132.01 80.8C132.063 80.7067 132.117 80.66 132.17 80.66C132.23 80.66 132.307 80.6967 132.4 80.77C132.553 80.8967 132.687 81.0133 132.8 81.12C132.92 81.22 133.05 81.3467 133.19 81.5C133.277 81.5933 133.307 81.6667 133.28 81.72C133.26 81.7733 133.18 81.8 133.04 81.8H127.2L127.06 83.49H131.57L131.8 83.12C131.867 83.0133 131.983 83.0067 132.15 83.1C132.29 83.18 132.413 83.26 132.52 83.34C132.627 83.4133 132.747 83.5033 132.88 83.61C132.927 83.65 132.96 83.6867 132.98 83.72C133.007 83.7533 133.01 83.79 132.99 83.83C132.97 83.87 132.923 83.9167 132.85 83.97C132.777 84.0167 132.67 84.0733 132.53 84.14C132.47 84.7933 132.417 85.3167 132.37 85.71C132.33 86.0967 132.297 86.4 132.27 86.62C132.243 86.8333 132.217 86.9867 132.19 87.08C132.17 87.1733 132.15 87.2533 132.13 87.32C132.057 87.54 131.98 87.7233 131.9 87.87C131.82 88.0167 131.72 88.1433 131.6 88.25C131.48 88.3567 131.337 88.4433 131.17 88.51C131.003 88.5833 130.797 88.6533 130.55 88.72C130.45 88.7467 130.373 88.7467 130.32 88.72C130.273 88.7 130.243 88.63 130.23 88.51C130.217 88.4033 130.197 88.3133 130.17 88.24C130.15 88.1733 130.093 88.1067 130 88.04C129.907 87.9733 129.767 87.9033 129.58 87.83C129.393 87.7567 129.137 87.6633 128.81 87.55L128.86 87.32C129.367 87.42 129.767 87.4867 130.06 87.52C130.36 87.5533 130.59 87.5533 130.75 87.52C130.91 87.4867 131.02 87.4133 131.08 87.3C131.147 87.1933 131.2 87.0433 131.24 86.85C131.313 86.49 131.383 86.07 131.45 85.59C131.523 85.11 131.59 84.5133 131.65 83.8H127.06L127.05 83.87C127.043 83.9633 127.007 84.0167 126.94 84.03C126.833 84.0633 126.727 84.0933 126.62 84.12C126.513 84.1467 126.39 84.1767 126.25 84.21C126.177 84.23 126.127 84.2333 126.1 84.22C126.08 84.2 126.077 84.1433 126.09 84.05C126.103 83.9633 126.117 83.8333 126.13 83.66C126.143 83.4867 126.153 83.3467 126.16 83.24L126.35 80.28ZM130.85 85.54C130.79 85.46 130.693 85.36 130.56 85.24C130.433 85.1133 130.293 84.9933 130.14 84.88C130.033 84.8 129.96 84.7633 129.92 84.77C129.887 84.7767 129.843 84.82 129.79 84.9L129.42 85.5H125.03C124.93 85.5 124.843 85.4967 124.77 85.49C124.703 85.4833 124.623 85.47 124.53 85.45L124.72 85.89C124.76 85.87 124.82 85.8533 124.9 85.84C124.98 85.8267 125.06 85.82 125.14 85.82H130.74C130.86 85.82 130.93 85.8033 130.95 85.77C130.97 85.73 130.937 85.6533 130.85 85.54ZM140.17 81.05C140.377 81.9833 140.617 82.8033 140.89 83.51C141.17 84.21 141.493 84.8233 141.86 85.35C142.233 85.8767 142.66 86.3267 143.14 86.7C143.62 87.0733 144.17 87.3967 144.79 87.67V87.85C144.563 87.87 144.38 87.8933 144.24 87.92C144.1 87.9533 143.987 87.9867 143.9 88.02C143.82 88.06 143.76 88.1033 143.72 88.15C143.68 88.2033 143.647 88.2633 143.62 88.33C143.587 88.4233 143.54 88.47 143.48 88.47C143.42 88.4767 143.367 88.46 143.32 88.42C142.56 87.76 141.89 86.9667 141.31 86.04C140.737 85.1067 140.257 83.9733 139.87 82.64C139.61 83.4467 139.34 84.1467 139.06 84.74C138.787 85.3333 138.473 85.86 138.12 86.32C137.773 86.7733 137.377 87.1833 136.93 87.55C136.483 87.9167 135.96 88.28 135.36 88.64L135.28 88.5C135.627 88.2 135.943 87.9067 136.23 87.62C136.517 87.34 136.783 87.0467 137.03 86.74C137.277 86.4267 137.503 86.0933 137.71 85.74C137.923 85.38 138.127 84.9733 138.32 84.52C138.52 84.06 138.71 83.5467 138.89 82.98C139.077 82.4067 139.267 81.75 139.46 81.01L139.37 80.53H138.15C138.11 80.53 138.057 80.5333 137.99 80.54C137.923 80.54 137.857 80.5433 137.79 80.55C137.723 80.5567 137.66 80.5667 137.6 80.58C137.547 80.5867 137.51 80.5933 137.49 80.6L137.21 80.18C137.257 80.1933 137.317 80.2033 137.39 80.21C137.463 80.21 137.54 80.2133 137.62 80.22C137.7 80.2267 137.777 80.23 137.85 80.23C137.93 80.23 137.997 80.23 138.05 80.23H139.26L139.45 79.82C139.497 79.7467 139.537 79.7167 139.57 79.73C139.603 79.7367 139.677 79.7633 139.79 79.81C139.923 79.8633 140.05 79.9267 140.17 80C140.297 80.0733 140.42 80.15 140.54 80.23C140.68 80.3233 140.743 80.3967 140.73 80.45C140.723 80.5033 140.643 80.5533 140.49 80.6C140.457 80.6133 140.417 80.63 140.37 80.65C140.33 80.67 140.29 80.6967 140.25 80.73C140.217 80.7633 140.19 80.8067 140.17 80.86C140.157 80.9133 140.157 80.9767 140.17 81.05ZM151.65 83.02V81.48H150.2C150.013 81.48 149.873 81.5067 149.78 81.56L149.58 81.1C149.72 81.1333 149.887 81.15 150.08 81.15H151.65V80.42C151.65 80.06 151.633 79.7467 151.6 79.48C152.167 79.62 152.517 79.72 152.65 79.78C152.783 79.8333 152.85 79.89 152.85 79.95C152.85 80.01 152.747 80.0933 152.54 80.2V81.15H153.56L153.91 80.64C153.963 80.56 154.017 80.52 154.07 80.52C154.123 80.52 154.313 80.6467 154.64 80.9C154.973 81.1533 155.14 81.3133 155.14 81.38C155.14 81.4467 155.04 81.48 154.84 81.48H152.54V83.02H154.3L154.61 82.52C154.663 82.4333 154.717 82.39 154.77 82.39C154.83 82.39 154.947 82.4567 155.12 82.59L155.59 82.97C155.73 83.09 155.8 83.1867 155.8 83.26C155.8 83.3333 155.707 83.37 155.52 83.37H152.95C153.683 83.51 154.05 83.6333 154.05 83.74C154.05 83.8 153.95 83.87 153.75 83.95V84.66H154.19L154.53 84.14C154.617 84.0067 154.69 83.94 154.75 83.94C154.81 83.94 154.87 83.9667 154.93 84.02C154.99 84.0733 155.1 84.1867 155.26 84.36C155.427 84.5267 155.533 84.64 155.58 84.7C155.633 84.76 155.66 84.81 155.66 84.85C155.66 84.9233 155.587 84.96 155.44 84.96H153.75V87.85C153.75 88.0233 153.707 88.17 153.62 88.29C153.533 88.41 153.353 88.53 153.08 88.65C152.807 88.7767 152.627 88.84 152.54 88.84C152.48 88.84 152.44 88.7867 152.42 88.68C152.387 88.44 152.287 88.25 152.12 88.11C151.953 87.9767 151.633 87.8133 151.16 87.62L151.21 87.43C151.883 87.5767 152.3 87.65 152.46 87.65C152.627 87.65 152.737 87.63 152.79 87.59C152.843 87.55 152.87 87.4633 152.87 87.33V84.96H149.67C149.503 84.96 149.36 84.9767 149.24 85.01L149.07 84.61C149.21 84.6433 149.377 84.66 149.57 84.66H152.87C152.87 83.9267 152.863 83.4967 152.85 83.37H149.94C149.76 83.37 149.62 83.3933 149.52 83.44L149.34 82.97C149.48 83.0033 149.647 83.02 149.84 83.02H151.65ZM147.42 79.57C147.967 79.87 148.383 80.1467 148.67 80.4C148.963 80.6533 149.11 80.8867 149.11 81.1C149.11 81.3133 149.057 81.5067 148.95 81.68C148.843 81.8467 148.71 81.93 148.55 81.93C148.477 81.93 148.423 81.9 148.39 81.84C148.357 81.7733 148.32 81.66 148.28 81.5C148.133 80.84 147.807 80.24 147.3 79.7L147.42 79.57ZM150.05 85.85C149.383 86.6033 148.947 87.1133 148.74 87.38C148.54 87.6533 148.36 87.9533 148.2 88.28C148.153 88.3667 148.1 88.41 148.04 88.41C147.993 88.41 147.927 88.3533 147.84 88.24C147.76 88.1267 147.623 87.88 147.43 87.5C147.57 87.38 147.673 87.25 147.74 87.11C147.807 86.9767 147.84 86.78 147.84 86.52V83.23H146.84C146.72 83.23 146.61 83.2467 146.51 83.28L146.24 82.87C146.353 82.9033 146.493 82.92 146.66 82.92H147.79L148 82.51C148.047 82.4167 148.107 82.37 148.18 82.37C148.253 82.37 148.427 82.4667 148.7 82.66C148.973 82.8533 149.11 82.98 149.11 83.04C149.11 83.1133 148.96 83.21 148.66 83.33V86.63L149.91 85.73L150.05 85.85ZM150.4 85.25C150.833 85.4367 151.153 85.62 151.36 85.8C151.573 85.9733 151.68 86.16 151.68 86.36C151.68 86.5533 151.627 86.7133 151.52 86.84C151.42 86.96 151.313 87.02 151.2 87.02C151.147 87.02 151.103 87 151.07 86.96C151.037 86.9133 151 86.8167 150.96 86.67C150.847 86.23 150.62 85.8033 150.28 85.39L150.4 85.25ZM161.58 80.74C159.82 80.9333 158.587 81.03 157.88 81.03V80.81C160.667 80.4567 162.82 79.9333 164.34 79.24C164.793 79.6333 165.073 79.89 165.18 80.01C165.287 80.13 165.34 80.2167 165.34 80.27C165.34 80.3233 165.31 80.35 165.25 80.35C165.19 80.35 165.13 80.34 165.07 80.32C165.01 80.3 164.91 80.29 164.77 80.29C164.637 80.29 164.36 80.3267 163.94 80.4C163.527 80.4733 163.047 80.5467 162.5 80.62V82.44H163.86L164.23 81.9C164.29 81.8133 164.36 81.77 164.44 81.77C164.52 81.77 164.71 81.91 165.01 82.19C165.31 82.4633 165.46 82.63 165.46 82.69C165.46 82.7433 165.38 82.77 165.22 82.77H162.5V84.39H164.86L165.37 83.75C165.443 83.6633 165.507 83.62 165.56 83.62C165.62 83.62 165.803 83.78 166.11 84.1C166.423 84.4133 166.58 84.5967 166.58 84.65C166.58 84.7033 166.5 84.73 166.34 84.73H162.5V87.49C162.5 87.7433 162.467 87.9333 162.4 88.06C162.34 88.1933 162.183 88.3233 161.93 88.45C161.683 88.5833 161.51 88.65 161.41 88.65C161.343 88.65 161.3 88.5967 161.28 88.49C161.233 88.25 161.12 88.0633 160.94 87.93C160.76 87.8033 160.413 87.66 159.9 87.5L159.95 87.3C160.51 87.3933 160.89 87.44 161.09 87.44C161.297 87.44 161.43 87.4 161.49 87.32C161.55 87.2467 161.58 87.1067 161.58 86.9V84.73H158C157.773 84.73 157.607 84.75 157.5 84.79L157.32 84.34C157.46 84.3733 157.627 84.39 157.82 84.39H161.58V82.77H159.11C158.883 82.77 158.717 82.79 158.61 82.83L158.43 82.39C158.57 82.4233 158.737 82.44 158.93 82.44H161.58V80.74ZM171.05 87.22C171.163 87.2133 171.273 87.2067 171.38 87.2C171.493 87.2 171.607 87.1967 171.72 87.19C172.08 86.73 172.423 86.2367 172.75 85.71C173.077 85.1767 173.38 84.6467 173.66 84.12H171.66C171.58 84.12 171.5 84.1267 171.42 84.14C171.34 84.1533 171.28 84.17 171.24 84.19L171.04 83.75L170.7 84.9C170.6 85.22 170.52 85.49 170.46 85.71C170.4 85.93 170.357 86.1367 170.33 86.33C170.31 86.5167 170.303 86.71 170.31 86.91C170.317 87.1033 170.337 87.3367 170.37 87.61C170.397 87.7967 170.403 87.9533 170.39 88.08C170.377 88.2133 170.35 88.32 170.31 88.4C170.27 88.48 170.217 88.5367 170.15 88.57C170.09 88.6033 170.023 88.62 169.95 88.62C169.83 88.62 169.723 88.59 169.63 88.53C169.543 88.47 169.473 88.39 169.42 88.29C169.373 88.19 169.343 88.0767 169.33 87.95C169.323 87.8233 169.34 87.6933 169.38 87.56C169.413 87.4333 169.44 87.3233 169.46 87.23C169.487 87.1367 169.507 87.0467 169.52 86.96C169.533 86.8733 169.54 86.7867 169.54 86.7C169.547 86.6133 169.55 86.5133 169.55 86.4C169.55 86.3267 169.54 86.2633 169.52 86.21C169.5 86.15 169.447 86.0933 169.36 86.04C169.28 85.98 169.16 85.9233 169 85.87C168.84 85.81 168.62 85.7433 168.34 85.67L168.36 85.47C168.66 85.49 168.9 85.4967 169.08 85.49C169.26 85.4767 169.41 85.4367 169.53 85.37C169.65 85.3033 169.75 85.2033 169.83 85.07C169.917 84.93 170.01 84.74 170.11 84.5L171.78 80.61L171.98 80.7L171.68 81.64C171.753 81.6533 171.82 81.6633 171.88 81.67C171.94 81.67 172.01 81.67 172.09 81.67H173.71V80.26C173.71 80.0267 173.71 79.84 173.71 79.7C173.71 79.56 173.703 79.4333 173.69 79.32C173.797 79.3467 173.887 79.3733 173.96 79.4C174.033 79.42 174.1 79.4433 174.16 79.47C174.227 79.4967 174.293 79.5233 174.36 79.55C174.427 79.5767 174.507 79.6067 174.6 79.64C174.673 79.6667 174.737 79.6967 174.79 79.73C174.85 79.7567 174.883 79.79 174.89 79.83C174.903 79.87 174.883 79.9167 174.83 79.97C174.783 80.0167 174.693 80.0733 174.56 80.14V81.67H175.74L175.99 81.17C176.043 81.0633 176.093 81.01 176.14 81.01C176.193 81.01 176.273 81.05 176.38 81.13C176.5 81.2233 176.607 81.3133 176.7 81.4C176.8 81.4867 176.897 81.58 176.99 81.68C177.183 81.88 177.147 81.98 176.88 81.98H174.56V83.78H176.15L176.51 83.19C176.563 83.1033 176.61 83.06 176.65 83.06C176.697 83.06 176.763 83.0967 176.85 83.17C176.983 83.2767 177.1 83.3733 177.2 83.46C177.3 83.5467 177.403 83.6433 177.51 83.75C177.663 83.9033 177.733 84.0033 177.72 84.05C177.713 84.0967 177.623 84.12 177.45 84.12H173.87C173.99 84.1733 174.097 84.2233 174.19 84.27C174.283 84.3167 174.367 84.3667 174.44 84.42C174.573 84.5133 174.633 84.5867 174.62 84.64C174.613 84.6933 174.56 84.7333 174.46 84.76C174.407 84.7733 174.343 84.8067 174.27 84.86C174.203 84.9133 174.123 84.9967 174.03 85.11C173.91 85.25 173.777 85.4033 173.63 85.57C173.483 85.7367 173.33 85.91 173.17 86.09C173.017 86.27 172.857 86.45 172.69 86.63C172.53 86.81 172.373 86.9833 172.22 87.15L175.62 86.87C175.52 86.6367 175.39 86.4033 175.23 86.17C175.077 85.9367 174.877 85.6933 174.63 85.44L174.75 85.28C175.203 85.56 175.567 85.81 175.84 86.03C176.12 86.2433 176.337 86.44 176.49 86.62C176.643 86.7933 176.747 86.95 176.8 87.09C176.853 87.2367 176.88 87.3767 176.88 87.51C176.88 87.8033 176.827 88.01 176.72 88.13C176.613 88.25 176.49 88.31 176.35 88.31C176.257 88.31 176.167 88.2767 176.08 88.21C175.993 88.1433 175.937 88.02 175.91 87.84C175.897 87.76 175.883 87.69 175.87 87.63C175.863 87.5767 175.853 87.5267 175.84 87.48C175.827 87.44 175.81 87.3933 175.79 87.34C175.777 87.2933 175.76 87.2333 175.74 87.16C175.12 87.2867 174.587 87.4033 174.14 87.51C173.693 87.6167 173.317 87.7133 173.01 87.8C172.703 87.8867 172.463 87.96 172.29 88.02C172.117 88.0867 171.993 88.14 171.92 88.18C171.84 88.2267 171.76 88.25 171.68 88.25C171.6 88.25 171.54 88.22 171.5 88.16C171.407 88.0267 171.323 87.88 171.25 87.72C171.183 87.5667 171.117 87.4 171.05 87.22ZM171.05 83.74C171.137 83.76 171.213 83.7733 171.28 83.78C171.353 83.78 171.44 83.78 171.54 83.78H173.71V81.98H172.23C172.15 81.98 172.07 81.9867 171.99 82C171.91 82.0133 171.85 82.03 171.81 82.05L171.65 81.74L171.05 83.74ZM170.92 80.83C170.92 80.9167 170.903 81.0067 170.87 81.1C170.837 81.1933 170.793 81.28 170.74 81.36C170.687 81.44 170.63 81.5067 170.57 81.56C170.51 81.6067 170.45 81.63 170.39 81.63C170.323 81.63 170.27 81.61 170.23 81.57C170.19 81.5233 170.143 81.42 170.09 81.26C170.01 80.9867 169.897 80.72 169.75 80.46C169.61 80.2 169.407 79.9433 169.14 79.69L169.22 79.54C169.587 79.6867 169.88 79.8167 170.1 79.93C170.327 80.0367 170.5 80.1367 170.62 80.23C170.74 80.3233 170.82 80.42 170.86 80.52C170.9 80.6133 170.92 80.7167 170.92 80.83ZM170.13 83.16C170.13 83.26 170.107 83.36 170.06 83.46C170.02 83.5533 169.97 83.6367 169.91 83.71C169.85 83.7833 169.783 83.8433 169.71 83.89C169.643 83.9367 169.583 83.96 169.53 83.96C169.463 83.96 169.407 83.9367 169.36 83.89C169.32 83.8367 169.277 83.7233 169.23 83.55C169.19 83.41 169.15 83.2833 169.11 83.17C169.077 83.0567 169.03 82.95 168.97 82.85C168.917 82.7433 168.843 82.6367 168.75 82.53C168.663 82.4167 168.55 82.29 168.41 82.15L168.51 81.99C168.857 82.11 169.137 82.2167 169.35 82.31C169.563 82.4033 169.727 82.4933 169.84 82.58C169.96 82.66 170.037 82.7467 170.07 82.84C170.11 82.9333 170.13 83.04 170.13 83.16Z" fill="white"/>
<path d="M237.57 81.23C238.01 81.31 238.337 81.4 238.55 81.5C238.763 81.5933 238.87 81.74 238.87 81.94C238.87 82.14 238.817 82.3033 238.71 82.43C238.61 82.55 238.507 82.61 238.4 82.61C238.293 82.61 238.217 82.5233 238.17 82.35C238.077 82.0167 237.877 81.72 237.57 81.46V88.08C237.57 88.1667 237.557 88.2267 237.53 88.26C237.51 88.3 237.39 88.3733 237.17 88.48C236.95 88.5867 236.82 88.64 236.78 88.64C236.747 88.64 236.73 88.6033 236.73 88.53L236.75 87.98C236.757 87.76 236.76 87.5067 236.76 87.22V80.17C236.76 79.8367 236.753 79.54 236.74 79.28C237.56 79.4667 237.97 79.61 237.97 79.71C237.97 79.77 237.837 79.87 237.57 80.01V81.23ZM240.81 80.76H239.29C239.11 80.76 238.97 80.7833 238.87 80.83L238.69 80.4C238.83 80.4333 238.997 80.45 239.19 80.45H240.81V80.18C240.81 79.8467 240.803 79.55 240.79 79.29C241.617 79.45 242.03 79.5767 242.03 79.67C242.03 79.73 241.903 79.81 241.65 79.91V80.45H242.86L243.18 79.98C243.253 79.8733 243.313 79.82 243.36 79.82C243.44 79.82 243.613 79.94 243.88 80.18C244.153 80.42 244.29 80.5767 244.29 80.65C244.29 80.7233 244.21 80.76 244.05 80.76H241.65V81.56H242.7L242.98 81.11C243.04 81.01 243.1 80.96 243.16 80.96C243.227 80.96 243.38 81.0767 243.62 81.31C243.86 81.5433 243.98 81.6967 243.98 81.77C243.98 81.8367 243.91 81.87 243.77 81.87H241.65V82.75H243.22L243.54 82.32C243.607 82.2133 243.677 82.16 243.75 82.16C243.823 82.16 243.997 82.2833 244.27 82.53C244.55 82.77 244.69 82.9267 244.69 83C244.69 83.0467 244.617 83.07 244.47 83.07H239.14C238.96 83.07 238.82 83.0933 238.72 83.14L238.54 82.7C238.68 82.7333 238.847 82.75 239.04 82.75H240.81V81.87H239.81C239.63 81.87 239.49 81.8933 239.39 81.94L239.21 81.51C239.35 81.5433 239.517 81.56 239.71 81.56H240.81V80.76ZM236.2 81.44C236.32 82.0933 236.38 82.58 236.38 82.9C236.38 83.2133 236.313 83.46 236.18 83.64C236.053 83.8133 235.877 83.9 235.65 83.9C235.543 83.9 235.453 83.8767 235.38 83.83C235.307 83.7833 235.27 83.71 235.27 83.61C235.27 83.51 235.343 83.35 235.49 83.13C235.803 82.67 235.96 82.11 235.96 81.45L236.2 81.44ZM240.2 83.84H242.44L242.65 83.54C242.697 83.4733 242.757 83.44 242.83 83.44C242.91 83.44 243.083 83.5133 243.35 83.66C243.617 83.8067 243.75 83.9133 243.75 83.98C243.75 84.0467 243.63 84.1267 243.39 84.22V87.5C243.39 87.8 243.367 88.0033 243.32 88.11C243.28 88.2167 243.16 88.33 242.96 88.45C242.76 88.5767 242.623 88.64 242.55 88.64C242.483 88.64 242.417 88.5567 242.35 88.39C242.263 88.1833 242.147 88.0267 242 87.92C241.853 87.8133 241.597 87.7167 241.23 87.63L241.25 87.42C241.717 87.4867 242.027 87.52 242.18 87.52C242.34 87.52 242.44 87.4967 242.48 87.45C242.52 87.41 242.54 87.3333 242.54 87.22V86.27H240.09V88.11C240.09 88.21 240.07 88.28 240.03 88.32C239.99 88.36 239.88 88.42 239.7 88.5C239.52 88.58 239.403 88.62 239.35 88.62C239.303 88.62 239.28 88.5667 239.28 88.46L239.3 88.07C239.307 87.8033 239.31 87.5067 239.31 87.18V84.61C239.31 84.17 239.3 83.79 239.28 83.47C239.62 83.5633 239.927 83.6867 240.2 83.84ZM242.54 84.86V84.13H240.09V84.86H242.54ZM242.54 85.98V85.18H240.09V85.98H242.54ZM251.74 81.15H248.36C248.347 82.3833 248.293 83.23 248.2 83.69C248.113 84.1433 247.94 84.5733 247.68 84.98C247.42 85.3867 246.99 85.8367 246.39 86.33L246.26 86.17C246.773 85.61 247.113 85.0567 247.28 84.51C247.447 83.9567 247.53 83.1833 247.53 82.19C247.53 81.6833 247.507 81.1 247.46 80.44C247.78 80.5267 248.12 80.66 248.48 80.84H251.71C251.65 80.2533 251.59 79.75 251.53 79.33C251.817 79.3767 252.067 79.43 252.28 79.49C252.493 79.5433 252.617 79.5833 252.65 79.61C252.69 79.63 252.71 79.6533 252.71 79.68C252.71 79.7467 252.623 79.8267 252.45 79.92C252.443 80.2067 252.45 80.5133 252.47 80.84H254.13L254.56 80.35C254.613 80.29 254.663 80.26 254.71 80.26C254.757 80.26 254.897 80.3867 255.13 80.64C255.37 80.8867 255.49 81.0333 255.49 81.08C255.49 81.1267 255.433 81.15 255.32 81.15H252.49C252.563 81.9967 252.75 82.7333 253.05 83.36C253.283 82.8933 253.5 82.3533 253.7 81.74C253.86 81.7867 254.067 81.8733 254.32 82C254.58 82.12 254.71 82.2033 254.71 82.25C254.71 82.29 254.667 82.32 254.58 82.34C254.493 82.36 254.423 82.4067 254.37 82.48C254.317 82.5467 254.213 82.73 254.06 83.03C253.913 83.33 253.703 83.6567 253.43 84.01C253.557 84.19 253.727 84.3733 253.94 84.56C254.153 84.7467 254.297 84.84 254.37 84.84C254.45 84.84 254.507 84.81 254.54 84.75C254.58 84.6833 254.633 84.54 254.7 84.32C254.767 84.1 254.853 83.76 254.96 83.3L255.16 83.34C255.113 83.7067 255.09 84.0267 255.09 84.3C255.09 84.8667 255.197 85.2867 255.41 85.56C255.497 85.6733 255.54 85.77 255.54 85.85C255.54 85.9233 255.467 85.96 255.32 85.96C255.02 85.96 254.64 85.8567 254.18 85.65C253.72 85.4367 253.303 85.0867 252.93 84.6C252.383 85.1733 251.843 85.5933 251.31 85.86C251.563 86.0467 251.69 86.2333 251.69 86.42C251.69 86.6 251.653 86.7633 251.58 86.91C251.507 87.05 251.393 87.12 251.24 87.12C251.193 87.12 251.16 87.1067 251.14 87.08C251.12 87.06 251.093 87 251.06 86.9C251.027 86.7933 250.94 86.5967 250.8 86.31C250.66 86.0233 250.52 85.7667 250.38 85.54L250.52 85.37C250.76 85.4967 250.97 85.6233 251.15 85.75C251.783 85.15 252.27 84.6 252.61 84.1C252.37 83.6933 252.187 83.2833 252.06 82.87C251.94 82.4567 251.833 81.8833 251.74 81.15ZM252.96 79.45C253.373 79.55 253.65 79.65 253.79 79.75C253.93 79.8433 254 79.9667 254 80.12C254 80.2667 253.967 80.4033 253.9 80.53C253.833 80.65 253.753 80.71 253.66 80.71C253.573 80.71 253.493 80.6233 253.42 80.45C253.247 80.0233 253.06 79.7333 252.86 79.58L252.96 79.45ZM250.44 81.97L250.76 81.58C250.807 81.52 250.853 81.49 250.9 81.49C250.953 81.49 251.093 81.5967 251.32 81.81C251.547 82.0167 251.66 82.1433 251.66 82.19C251.66 82.2367 251.61 82.26 251.51 82.26H249.01C248.83 82.26 248.69 82.2833 248.59 82.33L248.41 81.92C248.55 81.9533 248.717 81.97 248.91 81.97H250.44ZM250.61 84.81H249.46V85.03C249.46 85.09 249.437 85.1367 249.39 85.17C249.343 85.1967 249.243 85.2333 249.09 85.28C248.943 85.32 248.84 85.34 248.78 85.34C248.727 85.34 248.703 85.3 248.71 85.22C248.737 84.92 248.75 84.5967 248.75 84.25V83.56C248.75 83.28 248.74 82.9967 248.72 82.71C249.1 82.8367 249.38 82.9433 249.56 83.03H250.61L250.78 82.77C250.807 82.7233 250.84 82.7 250.88 82.7C250.92 82.7 251.063 82.7767 251.31 82.93C251.557 83.0767 251.68 83.1733 251.68 83.22C251.68 83.2667 251.57 83.3467 251.35 83.46V83.99C251.35 84.2767 251.353 84.47 251.36 84.57L251.38 84.86C251.38 84.8933 251.367 84.92 251.34 84.94C251.32 84.9533 251.227 84.9833 251.06 85.03C250.893 85.07 250.763 85.09 250.67 85.09C250.63 85.09 250.61 85.06 250.61 85V84.81ZM249.46 84.47H250.61V83.34H249.46V84.47ZM252.93 85.91C252.93 86.39 252.957 86.7633 253.01 87.03C253.07 87.3033 253.177 87.4833 253.33 87.57C253.417 87.6233 253.46 87.6733 253.46 87.72C253.46 87.7733 253.4 87.8833 253.28 88.05C253.16 88.2167 252.983 88.33 252.75 88.39C252.517 88.4567 252.053 88.49 251.36 88.49C250.673 88.49 250.177 88.4633 249.87 88.41C249.563 88.3567 249.363 88.2633 249.27 88.13C249.177 88.0033 249.13 87.7733 249.13 87.44V86.51C249.13 86.2367 249.12 85.9633 249.1 85.69C249.567 85.77 249.863 85.8333 249.99 85.88C250.123 85.92 250.19 85.9667 250.19 86.02C250.19 86.0733 250.107 86.1267 249.94 86.18V87.22C249.94 87.3867 249.947 87.5033 249.96 87.57C249.98 87.6367 250.013 87.68 250.06 87.7C250.113 87.7267 250.283 87.7433 250.57 87.75C250.857 87.7567 251.1 87.76 251.3 87.76C251.86 87.76 252.207 87.7167 252.34 87.63C252.48 87.5433 252.603 86.9667 252.71 85.9L252.93 85.91ZM248.36 85.8C248.4 86.0933 248.42 86.3633 248.42 86.61C248.42 87.0967 248.347 87.4867 248.2 87.78C248.053 88.08 247.857 88.23 247.61 88.23C247.45 88.23 247.31 88.1833 247.19 88.09C247.07 88.0033 247.01 87.8867 247.01 87.74C247.01 87.6333 247.12 87.5067 247.34 87.36C247.593 87.1933 247.77 87.0133 247.87 86.82C247.97 86.62 248.053 86.28 248.12 85.8H248.36ZM253.53 85.87C254.163 86.2633 254.583 86.5567 254.79 86.75C255.003 86.9433 255.11 87.12 255.11 87.28C255.11 87.44 255.06 87.6167 254.96 87.81C254.86 88.01 254.747 88.11 254.62 88.11C254.54 88.11 254.473 88.0833 254.42 88.03C254.373 87.9833 254.297 87.82 254.19 87.54C254.083 87.26 253.97 87.0067 253.85 86.78C253.737 86.5467 253.583 86.2933 253.39 86.02L253.53 85.87Z" fill="white"/>
</svg>
