<svg width="38" height="39" viewBox="0 0 38 39" fill="none" xmlns="http://www.w3.org/2000/svg">
    <path fill-rule="evenodd" clip-rule="evenodd"
        d="M26.3289 17.4295L37.4583 19.092C37.5476 19.0993 37.6303 19.1418 37.6883 19.2101C37.7463 19.2784 37.7747 19.3669 37.7674 19.4562C37.7602 19.5454 37.7177 19.6282 37.6494 19.6861C37.5811 19.7441 37.4926 19.7726 37.4033 19.7653L26.274 21.4278C26.0658 21.4573 25.869 21.5406 25.7029 21.6694C25.5367 21.7981 25.407 21.968 25.3266 22.1622C25.2461 22.3564 25.2177 22.5682 25.2441 22.7768C25.2705 22.9853 25.3508 23.1834 25.4771 23.3514L32.1822 32.3923C32.2368 32.4531 32.2658 32.5327 32.263 32.6144C32.2602 32.6961 32.2258 32.7736 32.1672 32.8305C32.1085 32.8874 32.03 32.9194 31.9482 32.9196C31.8665 32.9199 31.7878 32.8885 31.7287 32.832L22.7565 26.0857C22.5873 25.9601 22.3884 25.8804 22.1792 25.8543C21.97 25.8283 21.7577 25.8567 21.5628 25.9369C21.3678 26.0171 21.1969 26.1463 21.0666 26.312C20.9364 26.4777 20.8511 26.6743 20.8192 26.8826L19.1704 38.012C19.1704 38.0958 19.1371 38.1762 19.0778 38.2354C19.0186 38.2947 18.9382 38.328 18.8544 38.328C18.7706 38.328 18.6902 38.2947 18.6309 38.2354C18.5717 38.1762 18.5384 38.0958 18.5384 38.012L16.8896 26.8826C16.8577 26.6743 16.7724 26.4777 16.6421 26.312C16.5119 26.1463 16.341 26.0171 16.146 25.9369C15.9511 25.8567 15.7387 25.8283 15.5296 25.8543C15.3204 25.8804 15.1215 25.9601 14.9522 26.0857L5.92509 32.777C5.86601 32.8336 5.78732 32.865 5.70557 32.8647C5.62382 32.8644 5.54536 32.8324 5.48667 32.7755C5.42798 32.7186 5.39363 32.6412 5.39083 32.5595C5.38803 32.4778 5.41701 32.3982 5.47167 32.3374L12.1768 23.2965C12.3031 23.1284 12.3834 22.9304 12.4098 22.7218C12.4361 22.5133 12.4077 22.3015 12.3273 22.1073C12.2468 21.9131 12.1171 21.7432 11.951 21.6144C11.7848 21.4856 11.588 21.4024 11.3799 21.3729L0.250485 19.7103C0.179628 19.6953 0.116079 19.6564 0.0704808 19.6001C0.0248824 19.5439 0 19.4736 0 19.4012C0 19.3288 0.0248824 19.2585 0.0704808 19.2023C0.116079 19.146 0.179628 19.1071 0.250485 19.092L11.3799 17.4707C11.588 17.4412 11.7848 17.358 11.951 17.2292C12.1171 17.1004 12.2468 16.9306 12.3273 16.7364C12.4077 16.5422 12.4361 16.3303 12.4098 16.1218C12.3834 15.9132 12.3031 15.7152 12.1768 15.5471L5.47167 6.50625C5.41701 6.44546 5.38803 6.36584 5.39083 6.28414C5.39363 6.20243 5.42798 6.12499 5.48667 6.06808C5.54536 6.01117 5.62382 5.97922 5.70557 5.97893C5.78732 5.97865 5.86601 6.01006 5.92509 6.06657L14.9522 12.7717C15.1225 12.8975 15.3224 12.9769 15.5325 13.0023C15.7427 13.0276 15.9558 12.998 16.151 12.9163C16.3463 12.8346 16.517 12.7036 16.6464 12.5362C16.7759 12.3687 16.8597 12.1705 16.8896 11.961L18.5384 0.831643C18.5384 0.74783 18.5717 0.667453 18.6309 0.608188C18.6902 0.548923 18.7706 0.515625 18.8544 0.515625C18.9382 0.515625 19.0186 0.548923 19.0778 0.608188C19.1371 0.667453 19.1704 0.74783 19.1704 0.831643L20.8192 11.961C20.8491 12.1705 20.9329 12.3687 21.0624 12.5362C21.1918 12.7036 21.3625 12.8346 21.5578 12.9163C21.753 12.998 21.9661 13.0276 22.1762 13.0023C22.3864 12.9769 22.5863 12.8975 22.7565 12.7717L31.7837 6.02535C31.8428 5.96885 31.9215 5.93743 32.0032 5.93772C32.085 5.938 32.1634 5.96995 32.2221 6.02686C32.2808 6.08377 32.3152 6.16122 32.318 6.24292C32.3207 6.32463 32.2918 6.40424 32.2371 6.46503L25.532 15.5059C25.4057 15.674 25.3254 15.872 25.299 16.0806C25.2726 16.2891 25.3011 16.5009 25.3815 16.6951C25.462 16.8893 25.5917 17.0592 25.7578 17.188C25.924 17.3168 26.1208 17.4 26.3289 17.4295ZM22.1105 19.4357C22.1105 21.2342 20.6526 22.6921 18.8542 22.6921C17.0557 22.6921 15.5978 21.2342 15.5978 19.4357C15.5978 17.6373 17.0557 16.1793 18.8542 16.1793C20.6526 16.1793 22.1105 17.6373 22.1105 19.4357Z"
        fill="#72A5DF" />
</svg>